<?xml version="1.0" encoding="UTF-8"?>
<svg version="1.1" xmlns="http://www.w3.org/2000/svg" width="500" height="500">
<path d="M0 0 C0.042721 1.66611905 0.04063832 3.33382885 0 5 C-1 6 -1 6 -4.0625 6.0625 C-5.031875 6.041875 -6.00125 6.02125 -7 6 C-7.18175781 6.56847656 -7.36351562 7.13695312 -7.55078125 7.72265625 C-9.14084634 12.60701003 -10.90459778 17.31029027 -13 22 C-6.565 21.505 -6.565 21.505 0 21 C-1 26 -1 26 -2 27 C-4.34987262 27.23527773 -6.70556039 27.41386417 -9.0625 27.5625 C-10.35285156 27.64628906 -11.64320313 27.73007813 -12.97265625 27.81640625 C-13.97167969 27.87699219 -14.97070312 27.93757813 -16 28 C-16.24234375 28.88300781 -16.4846875 29.76601562 -16.734375 30.67578125 C-18.10404033 34.27326642 -19.66805232 36.35526148 -22.25 39.1875 C-22.99765625 40.02667969 -23.7453125 40.86585938 -24.515625 41.73046875 C-28.74268141 45.59197783 -32.56944912 47.42429593 -38.3125 47.25 C-39.17488281 47.23453125 -40.03726563 47.2190625 -40.92578125 47.203125 C-43 47 -43 47 -44 46 C-44.4375 43.25 -44.4375 43.25 -44 40 C-42.18547719 37.66535339 -40.57486537 36.63404917 -38 35 C-35.625 35.1875 -35.625 35.1875 -34 36 C-34.33 37.98 -34.66 39.96 -35 42 C-30.52144367 40.65947974 -28.99032437 39.05616623 -26.75 35 C-26.24984375 34.113125 -25.7496875 33.22625 -25.234375 32.3125 C-24.47199764 30.88424875 -23.72403327 29.44806654 -23 28 C-27.62 28 -32.24 28 -37 28 C-36 24 -36 24 -34.125 22.3125 C-29.4638415 20.35481343 -25.03798095 20.30349283 -20 20 C-18.02 15.38 -16.04 10.76 -14 6 C-18.03890609 5.93093701 -22.07629805 5.8712649 -26.11547852 5.83520508 C-27.48794517 5.82016568 -28.86036414 5.79972867 -30.23266602 5.77368164 C-32.21088656 5.73708779 -34.18946514 5.72183302 -36.16796875 5.70703125 C-37.35672607 5.6913208 -38.5454834 5.67561035 -39.77026367 5.65942383 C-43.28064831 6.02959441 -45.15535052 6.96676743 -48 9 C-47.80528889 10.94999129 -47.80528889 10.94999129 -47 13 C-45.0162233 14.28436734 -45.0162233 14.28436734 -43 15 C-43 16.98 -43 18.96 -43 21 C-47.42536728 20.82979357 -49.38696114 20.6436908 -52.5 17.375 C-54.40640477 13.08558927 -54.63132968 11.42789484 -53 7 C-39.48621372 -7.44980611 -17.54679553 -1.69104066 0 0 Z " fill="#010101" transform="translate(182,221)"/>
<path d="M0 0 C0.99 0 1.98 0 3 0 C2.99476318 0.91813477 2.98952637 1.83626953 2.98413086 2.78222656 C2.96706402 6.19645823 2.95453768 9.61064441 2.94506836 13.02490234 C2.94004712 14.50114661 2.93322884 15.97738592 2.92456055 17.45361328 C2.91239811 19.57846298 2.90674954 21.70324678 2.90234375 23.828125 C2.89710693 25.1059082 2.89187012 26.38369141 2.88647461 27.70019531 C2.97863158 30.37889128 3.31784052 32.44740323 4 35 C3 36 3 36 0.5625 36.1875 C-2 36 -2 36 -4 34 C-4.40047444 31.67724823 -4.7397104 29.34260643 -5 27 C-9.56086346 26.69395188 -13.91361364 26.82073624 -18 29 C-21.38403723 32.26451475 -24.00319774 36.06142769 -26.59643555 39.96655273 C-27.10086182 40.72137939 -27.60528809 41.47620605 -28.125 42.25390625 C-28.56070312 42.94814697 -28.99640625 43.6423877 -29.4453125 44.35766602 C-31.47603168 46.50286826 -33.12119812 46.67013728 -36 47 C-35.40336514 43.90106073 -34.4698686 41.99707826 -32.49609375 39.546875 C-31.75649414 38.61875 -31.75649414 38.61875 -31.00195312 37.671875 C-30.48568359 37.03765625 -29.96941406 36.4034375 -29.4375 35.75 C-28.65729492 34.77546875 -28.65729492 34.77546875 -27.86132812 33.78125 C-26.580156 32.18272331 -25.29085995 30.59071374 -24 29 C-25.32 28.67 -26.64 28.34 -28 28 C-28 26.68 -28 25.36 -28 24 C-25 22 -25 22 -21.69140625 21.26171875 C-17.06347493 19.67989672 -15.04104193 17.45720897 -11.9375 13.8125 C-11.41873291 13.22895752 -10.89996582 12.64541504 -10.36547852 12.04418945 C-7.65466031 8.98050888 -5.03705697 5.84596172 -2.4375 2.6875 C-1.633125 1.800625 -0.82875 0.91375 0 0 Z M-5 11 C-6.55450084 12.7837089 -8.06882856 14.60255152 -9.5625 16.4375 C-10.80193359 17.95150391 -10.80193359 17.95150391 -12.06640625 19.49609375 C-14.10186691 21.60464673 -14.10186691 21.60464673 -14 23 C-11.03 23 -8.06 23 -5 23 C-4.67 19.04 -4.34 15.08 -4 11 C-4.33 11 -4.66 11 -5 11 Z " fill="#010101" transform="translate(312,220)"/>
<path d="M0 0 C-0.875 6.75 -0.875 6.75 -2 9 C-1.34 9.33 -0.68 9.66 0 10 C-0.33 11.32 -0.66 12.64 -1 14 C-2.65 14.33 -4.3 14.66 -6 15 C-6.33 16.98 -6.66 18.96 -7 21 C-5.6078125 20.7525 -5.6078125 20.7525 -4.1875 20.5 C-0.42514755 19.90982707 2.36490874 19.9972162 6 21 C6 17.79604584 5.25664978 15.90600261 4 13 C6.21928194 10.09197539 7.92969143 8.04687238 11 6 C13.6875 5.875 13.6875 5.875 16 6 C16 7.98 16 9.96 16 12 C15.01 12.33 14.02 12.66 13 13 C13.33 13.53625 13.66 14.0725 14 14.625 C15.29618989 17.703451 15.48288863 19.68876368 15 23 C11.83914877 26.07767094 9.4355637 27.94018485 5 28.125 C2 28 2 28 0 27 C-0.33 26.01 -0.66 25.02 -1 24 C-1.515625 24.495 -2.03125 24.99 -2.5625 25.5 C-5.93424177 27.57491801 -8.11590535 27.56495922 -12 27 C-14.48614999 24.66923439 -14.9644639 22.95638468 -15.08984375 19.58203125 C-14.70186255 12.84707549 -14.70186255 12.84707549 -12.1875 9.8125 C-11.465625 9.214375 -10.74375 8.61625 -10 8 C-9.27698702 6.79138129 -8.59136954 5.55988189 -7.9375 4.3125 C-5.57093231 0.26643267 -4.57487291 0 0 0 Z " fill="#010101" transform="translate(352,231)"/>
<path d="M0 0 C2.125 0.375 2.125 0.375 4 1 C4 2.98 4 4.96 4 7 C6.31 4.69 8.62 2.38 11 0 C11.99 0.33 12.98 0.66 14 1 C14 3.31 14 5.62 14 8 C14.598125 7.21625 15.19625 6.4325 15.8125 5.625 C18 3 18 3 21 1 C21.99 1 22.98 1 24 1 C24.04862335 3.6742845 24.05293242 6.32691273 24 9 C23.97679687 10.20269531 23.97679687 10.20269531 23.953125 11.4296875 C23.59678117 17.46773571 23.59678117 17.46773571 20.6875 20.0625 C18 21 18 21 14 21 C14 18.69 14 16.38 14 14 C12.9171875 15.2065625 12.9171875 15.2065625 11.8125 16.4375 C8.97484311 19.02292072 7.72833853 19.68042813 4 20 C3 16.125 3 16.125 3 15 C2.0925 15.804375 1.185 16.60875 0.25 17.4375 C-2.10309908 19.41142671 -3.86938046 20.63877467 -7 21 C-8.55446346 16.28269761 -7.17888197 13.11442448 -5.1875 8.8125 C-4.91357422 8.18408203 -4.63964844 7.55566406 -4.35742188 6.90820312 C-3.14419596 4.18790041 -2.12247725 2.12247725 0 0 Z " fill="#020202" transform="translate(250,237)"/>
<path d="M0 0 C2.25 0.25 2.25 0.25 4 1 C3.67 3.64 3.34 6.28 3 9 C5.17029425 6.82970575 7.04155778 4.36017396 9 2 C10.32 2.33 11.64 2.66 13 3 C12.91304042 5.60578866 12.80618592 8.2081279 12.6875 10.8125 C12.66494141 11.55048828 12.64238281 12.28847656 12.61914062 13.04882812 C12.34794403 18.49741417 12.34794403 18.49741417 10.59375 21.03125 C9 22 9 22 6.8125 21.6875 C6.214375 21.460625 5.61625 21.23375 5 21 C4.67 19.35 4.34 17.7 4 16 C3.401875 16.61875 2.80375 17.2375 2.1875 17.875 C0 20 0 20 -3 22 C-5.1875 21.625 -5.1875 21.625 -7 21 C-8.21384107 16.74764064 -7.72593522 14.09373515 -6.3125 9.9375 C-5.97863281 8.91527344 -5.64476562 7.89304688 -5.30078125 6.83984375 C-3.91782534 3.82059767 -2.57428603 2.08058734 0 0 Z " fill="#020202" transform="translate(228,236)"/>
<path d="M0 0 C1.75 0.875 1.75 0.875 3.75 2.875 C4.21636118 8.47133422 3.92378446 12.05960288 0.75 16.875 C-2.80332242 20.08165682 -4.93465118 21.80453488 -9.75 22.0625 C-13.25 21.875 -13.25 21.875 -15.25 19.875 C-15.63335459 15.95360201 -15.07891205 12.26282018 -13.05078125 8.8671875 C-9.87980322 5.02206454 -5.33624097 -0.29645783 0 0 Z M-4.25 7.875 C-6.65814077 11.38687196 -7.61629408 13.60156908 -7.25 17.875 C-4.25675737 16.7774777 -3.40389099 16.19817108 -2 13.25 C-1.7525 12.46625 -1.505 11.6825 -1.25 10.875 C-2.24 9.885 -3.23 8.895 -4.25 7.875 Z " fill="#010101" transform="translate(196.25,236.125)"/>
<path d="M0 0 C1.32 0.66 2.64 1.32 4 2 C4 5.3 4 8.6 4 12 C1.625 13.0625 1.625 13.0625 -1 14 C-1.66 13.67 -2.32 13.34 -3 13 C-3.2475 13.9075 -3.495 14.815 -3.75 15.75 C-5.06710514 19.17447337 -6.0223607 20.87311478 -9 23 C-11.75 22.75 -11.75 22.75 -14 22 C-14.33 21.01 -14.66 20.02 -15 19 C-14.525625 18.38125 -14.05125 17.7625 -13.5625 17.125 C-11.6671046 14.54726225 -11.73956012 13.12527858 -12 10 C-12.66 9.67 -13.32 9.34 -14 9 C-13.5 7.0625 -13.5 7.0625 -12 5 C-9.99705196 4.74155509 -7.99105739 4.49050225 -5.9765625 4.34765625 C-3.06965613 3.83636244 -1.7591835 2.27227869 0 0 Z " fill="#020202" transform="translate(216,235)"/>
<path d="M0 0 C0.99 0.33 1.98 0.66 3 1 C3 4.96 3 8.92 3 13 C2.113125 13 1.22625 13 0.3125 13 C-4.08319794 14.32700315 -4.63293245 16.3267784 -6.7734375 20.1796875 C-8 22 -8 22 -10.6875 23.125 C-13 23 -13 23 -15 21 C-14.75 19.3125 -14.75 19.3125 -14 17 C-13.649375 15.7625 -13.29875 14.525 -12.9375 13.25 C-12.4734375 11.64125 -12.4734375 11.64125 -12 10 C-12.66 9.67 -13.32 9.34 -14 9 C-13.375 7.0625 -13.375 7.0625 -12 5 C-8.875 4.25 -8.875 4.25 -6 4 C-5.67 5.65 -5.34 7.3 -5 9 C-4.731875 7.88625 -4.46375 6.7725 -4.1875 5.625 C-3 2 -3 2 0 0 Z " fill="#010101" transform="translate(334,235)"/>
</svg>
