<?xml version="1.0" encoding="UTF-8"?>
<svg version="1.1" xmlns="http://www.w3.org/2000/svg" width="500" height="500">
<path d="M0 0 C1.5234375 1.4609375 1.5234375 1.4609375 2.375 3.375 C3.78475569 5.68271888 4.52634397 6.79635518 7.03515625 7.875 C13.05123348 9.12712664 19.19681181 9.28369348 25.31640625 9.65234375 C32.32329855 10.31365172 39.31970572 11.77323524 46 14 C47.92081666 13.5363546 49.84055023 13.0658527 51.74609375 12.54296875 C54.75438435 11.8182679 57.74670806 11.52177569 60.82421875 11.24609375 C63.06794381 11.05673273 63.06794381 11.05673273 65.41796875 10.28125 C68.99397378 9.89173054 70.59203344 11.20266202 73.625 13.0625 C80.17503559 16.56338109 84.09084947 16.0055437 91 14 C95.76346797 13.01148088 100.40271518 12.84498265 105.25 12.875 C106.0548584 12.87838379 106.8597168 12.88176758 107.68896484 12.88525391 C115.00357694 12.94432026 122.31427899 13.13545723 129.625 13.375 C130.71458008 13.40577637 131.80416016 13.43655273 132.92675781 13.46826172 C142.6973798 13.83041489 151.40819481 14.367966 158.62890625 21.640625 C162.30163075 25.71159673 164.87422652 29.17009664 165.125 34.8125 C165.08375 35.534375 165.0425 36.25625 165 37 C165.99 37.33 166.98 37.66 168 38 C168 39.65 168 41.3 168 43 C166.68 43.66 165.36 44.32 164 45 C164.515625 45.886875 165.03125 46.77375 165.5625 47.6875 C167 51 167 51 166.9375 53.625 C165.78766131 56.53792468 164.40755799 58.01730519 162 60 C158.43528609 61.18823797 155.7441664 61.26274852 152 61 C149.5625 59.5 149.5625 59.5 148 58 C147.2265625 58.495 147.2265625 58.495 146.4375 59 C143.08597404 60.37498501 140.59034613 60.38467994 137 60 C134.78125 57.9765625 134.78125 57.9765625 133 56 C132.40316406 56.43570313 131.80632812 56.87140625 131.19140625 57.3203125 C124.7132793 61.76740708 118.48612218 64.52315482 111.01586914 66.86962891 C103.96039951 69.13414482 98.69183018 73.16892973 92.8125 77.625 C84.34411299 84.0375396 84.34411299 84.0375396 80.5625 83.625 C73.99618195 83.41980256 69.08764655 88.3688433 64 92 C58.49454605 95.58791968 54.64594897 97.70701585 48 97 C48 98.32 48 99.64 48 101 C45.3425212 101.27816601 42.68684446 101.53041941 40.0234375 101.74609375 C38.1701613 101.90173064 36.31895945 102.09382757 34.4765625 102.34765625 C32.08800278 102.57183848 30.31160135 102.66574119 28 102 C26.671875 100.25 26.671875 100.25 25.4375 98.0625 C24.12150113 95.74190327 24.12150113 95.74190327 22 94 C17.97180031 93.26194134 14.14374122 93.18231658 10.0625 93.13671875 C5.57443157 93.07275329 1.6035683 92.064116 -2.66796875 90.71875 C-7.75189521 89.15184469 -10.92529297 88.95452866 -16.125 90.375 C-17.15882813 90.65085937 -18.19265625 90.92671875 -19.2578125 91.2109375 C-21.18444875 91.76532571 -23.09806777 92.36602259 -25 93 C-27.19921875 91.75 -27.19921875 91.75 -29.6875 90 C-33.66587243 87.51279756 -36.10517511 86.34154598 -40.90625 87.43359375 C-41.5971875 87.62050781 -42.288125 87.80742187 -43 88 C-44.83207413 88.36062379 -46.66545614 88.71465812 -48.5 89.0625 C-50.00059887 89.37211151 -51.500823 89.68357535 -53 90 C-52.81179687 90.62261719 -52.62359375 91.24523437 -52.4296875 91.88671875 C-52 94 -52 94 -53.125 95.8125 C-55 97 -55 97 -57.6875 96.6875 C-58.450625 96.460625 -59.21375 96.23375 -60 96 C-60.5625 94.0625 -60.5625 94.0625 -61 92 C-60.67 91.67 -60.34 91.34 -60 91 C-63.08169709 89.97276764 -65.53530426 89.75604587 -68.76953125 89.5703125 C-69.90583984 89.49683594 -71.04214844 89.42335938 -72.21289062 89.34765625 C-74.60048516 89.19996999 -76.98852284 89.0592716 -79.37695312 88.92578125 C-86.3737822 88.4590623 -91.64187069 88.0056539 -97.046875 83.16796875 C-101.42246144 78.07984415 -103.93910048 74.41037303 -104.0625 67.5 C-102.60502694 62.69891227 -100.23096082 60.57775205 -96 58 C-93.05328166 56.7461811 -90.08849093 55.83197721 -87 55 C-85.515 54.505 -85.515 54.505 -84 54 C-84 53.34 -84 52.68 -84 52 C-82.625 50.375 -82.625 50.375 -81 49 C-80.34 49 -79.68 49 -79 49 C-78.95875 48.38125 -78.9175 47.7625 -78.875 47.125 C-78.58625 46.42375 -78.2975 45.7225 -78 45 C-74.9375 43.75 -74.9375 43.75 -72 43 C-72 42.34 -72 41.68 -72 41 C-70.41925436 40.18247697 -68.83528777 39.37118003 -67.25 38.5625 C-66.36828125 38.11003906 -65.4865625 37.65757812 -64.578125 37.19140625 C-62 36 -62 36 -59.8125 35.625 C-57.7850915 35.14083484 -57.7850915 35.14083484 -56.734375 32.93359375 C-56.40953125 32.10988281 -56.0846875 31.28617188 -55.75 30.4375 C-55.41484375 29.61121094 -55.0796875 28.78492188 -54.734375 27.93359375 C-54.49203125 27.29550781 -54.2496875 26.65742188 -54 26 C-72.99053712 23.58959865 -72.99053712 23.58959865 -91 28 C-91.83304005 30.03611012 -91.83304005 30.03611012 -92 32 C-91.01 32.53625 -90.02 33.0725 -89 33.625 C-88.01 34.40875 -87.02 35.1925 -86 36 C-85.625 39.25 -85.625 39.25 -86 42 C-88.6875 42.375 -88.6875 42.375 -92 42 C-95.47609168 38.83289425 -96.71044725 36.91691703 -98.125 32.4375 C-98 29 -98 29 -95.875 26.3125 C-94.92625 25.549375 -93.9775 24.78625 -93 24 C-92.278125 23.29875 -91.55625 22.5975 -90.8125 21.875 C-81.55769001 15.70512667 -70.44832019 16.20990827 -59.78515625 17.48046875 C-43.852146 19.55425256 -43.852146 19.55425256 -28.46875 16.49609375 C-25.84185499 14.37213275 -24.31084958 13.12290634 -23 10 C-23.06290694 7.22685235 -23.49237137 4.74580942 -24 2 C-21.50072231 1.66029235 -19.00080405 1.32811968 -16.5 1 C-15.80390625 0.90460938 -15.1078125 0.80921875 -14.390625 0.7109375 C-9.55021089 0.08347641 -4.87749946 -0.36870946 0 0 Z M143 47 C142.67 48.98 142.34 50.96 142 53 C145.05263664 53.98120464 146.94736336 53.98120464 150 53 C150.33 53.66 150.66 54.32 151 55 C152.32 54.34 153.64 53.68 155 53 C156.32 53.99 157.64 54.98 159 56 C158.39301257 51.87248551 156.96189209 48.6678852 155 45 C150.53160785 44.78721942 147.17737474 45.40861915 143 47 Z " fill="#F6D1E3" transform="translate(213,200)"/>
<path d="M0 0 C1.5234375 1.4609375 1.5234375 1.4609375 2.375 3.375 C3.78475569 5.68271888 4.52634397 6.79635518 7.03515625 7.875 C13.05123348 9.12712664 19.19681181 9.28369348 25.31640625 9.65234375 C32.32329855 10.31365172 39.31970572 11.77323524 46 14 C47.92081666 13.5363546 49.84055023 13.0658527 51.74609375 12.54296875 C54.75438435 11.8182679 57.74670806 11.52177569 60.82421875 11.24609375 C63.06794381 11.05673273 63.06794381 11.05673273 65.41796875 10.28125 C68.99397378 9.89173054 70.59203344 11.20266202 73.625 13.0625 C80.17503559 16.56338109 84.09084947 16.0055437 91 14 C95.84206898 12.98560007 100.45585403 12.87968002 105.375 12.9375 C106.11105469 12.94201172 106.84710938 12.94652344 107.60546875 12.95117188 C109.40368158 12.96284858 111.20185197 12.98077989 113 13 C111.68 13.33 110.36 13.66 109 14 C109 15.32 109 16.64 109 18 C107.63671875 19.5 107.63671875 19.5 105.6875 21 C101.90861876 24.11320643 98.59634693 27.44618941 95.3125 31.0625 C94.63610474 31.8040332 94.63610474 31.8040332 93.94604492 32.56054688 C92.13815896 34.56084568 90.34476674 36.55807347 88.68579102 38.68457031 C85.36152357 42.93872482 85.36152357 42.93872482 81.3125 43.625 C80.219375 43.74875 79.12625 43.8725 78 44 C76.48705712 45.93597032 76.48705712 45.93597032 76 48 C77.32 48.33 78.64 48.66 80 49 C78.61270946 52.98309706 76.75889536 55.90258522 74.125 59.1875 C73.44695312 60.04730469 72.76890625 60.90710938 72.0703125 61.79296875 C70.07343662 63.92171379 68.58333453 64.77485637 66 66 C64.71745356 68.53770003 64.71745356 68.53770003 64 71 C62.4375 69.875 62.4375 69.875 61 68 C61.13861349 64.67327622 61.41010781 62.70787063 63.5625 60.125 C64.036875 59.75375 64.51125 59.3825 65 59 C63.515 58.505 63.515 58.505 62 58 C60.72432649 51.23893038 61.51274415 45.68650564 63 39 C58.14032976 41.50346649 54.72143296 45.08552441 51 49 C49.58312881 44.74938644 50.80679961 42.28148375 52 38 C51.21625 38.495 50.4325 38.99 49.625 39.5 C47 41 47 41 45 41 C44.773125 41.5775 44.54625 42.155 44.3125 42.75 C42.66961977 45.5663661 40.60466773 47.08077114 38 49 C38.495 47.39125 38.495 47.39125 39 45.75 C40.1717751 42.00268399 40.1717751 42.00268399 40 38 C37.21045638 39.03645463 36.15237391 39.74057586 34.62109375 42.34765625 C34.23050781 43.24355469 33.83992188 44.13945312 33.4375 45.0625 C32.24609375 47.78515625 32.24609375 47.78515625 31 50 C29.515 50.495 29.515 50.495 28 51 C27.01 51.99 27.01 51.99 26 53 C26 48.38 26 43.76 26 39 C21.91167185 39.57038644 21.91167185 39.57038644 20.18359375 42.46875 C19.60738281 43.4690625 19.03117187 44.469375 18.4375 45.5 C15.3161256 50.8946248 15.3161256 50.8946248 12 52 C12.20496094 51.40832031 12.40992188 50.81664062 12.62109375 50.20703125 C13.9997571 46.16339184 15.31750847 42.23144751 16 38 C15.34 37.67 14.68 37.34 14 37 C9.53280358 40.86656497 7.82770244 44.19279001 6.1875 49.8125 C5.97158203 50.50537109 5.75566406 51.19824219 5.53320312 51.91210938 C5.00819297 53.60380878 4.50211263 55.30136365 4 57 C2.68176698 56.40844669 1.37052949 55.80128537 0.0625 55.1875 C-0.66839844 54.85105469 -1.39929688 54.51460937 -2.15234375 54.16796875 C-4 53 -4 53 -5 50 C-4.505 49.01 -4.505 49.01 -4 48 C-1.69 48 0.62 48 3 48 C2.835 46.741875 2.67 45.48375 2.5 44.1875 C2.17841759 41.73543415 2 39.48349306 2 37 C-0.475 37.495 -0.475 37.495 -3 38 C-3.10957031 38.60328125 -3.21914062 39.2065625 -3.33203125 39.828125 C-3.56986328 41.02695313 -3.56986328 41.02695313 -3.8125 42.25 C-3.96332031 43.03890625 -4.11414063 43.8278125 -4.26953125 44.640625 C-5 47 -5 47 -8 51 C-7.67 47.37 -7.34 43.74 -7 40 C-10.48809191 40.77030122 -10.48809191 40.77030122 -14 42 C-14.33 42.99 -14.66 43.98 -15 45 C-14.34 45 -13.68 45 -13 45 C-13.1875 47.375 -13.1875 47.375 -14 50 C-16.55078125 51.1640625 -16.55078125 51.1640625 -19 52 C-19.04898438 51.16855469 -19.09796875 50.33710938 -19.1484375 49.48046875 C-19.22320312 48.39378906 -19.29796875 47.30710938 -19.375 46.1875 C-19.47941406 44.56908203 -19.47941406 44.56908203 -19.5859375 42.91796875 C-19.81195733 39.81373814 -19.81195733 39.81373814 -22 37 C-25.38929763 37.59191529 -27.06246323 38.75805569 -29.59375 41.0390625 C-34.44278376 44.80178675 -38.55139921 44.71220266 -44.5 44.375 C-45.4178125 44.34792969 -46.335625 44.32085937 -47.28125 44.29296875 C-49.52336547 44.22290264 -51.76037714 44.12477899 -54 44 C-53.00550455 40.99814243 -52.00399028 37.9986939 -51 35 C-50.69578125 34.08347656 -50.3915625 33.16695312 -50.078125 32.22265625 C-47.88021556 26.4894302 -47.88021556 26.4894302 -45.1875 24.9921875 C-43.25 24.4375 -43.25 24.4375 -40 24 C-39.67 22.35 -39.34 20.7 -39 19 C-38.030625 19 -37.06125 19 -36.0625 19 C-31.29567978 18.30504264 -28.25751409 15.46543504 -24.625 12.49609375 C-22.18421212 8.74690276 -23.13231278 6.30680165 -24 2 C-21.50072231 1.66029235 -19.00080405 1.32811968 -16.5 1 C-15.45585937 0.85691406 -15.45585937 0.85691406 -14.390625 0.7109375 C-9.55021089 0.08347641 -4.87749946 -0.36870946 0 0 Z " fill="#F4D4E3" transform="translate(213,200)"/>
<path d="M0 0 C1.93456055 0.05317383 1.93456055 0.05317383 3.90820312 0.10742188 C23.9610494 0.79395264 23.9610494 0.79395264 31.44140625 8.328125 C35.11413075 12.39909673 37.68672652 15.85759664 37.9375 21.5 C37.89625 22.221875 37.855 22.94375 37.8125 23.6875 C39.2975 24.1825 39.2975 24.1825 40.8125 24.6875 C40.8125 26.3375 40.8125 27.9875 40.8125 29.6875 C39.4925 30.3475 38.1725 31.0075 36.8125 31.6875 C37.328125 32.574375 37.84375 33.46125 38.375 34.375 C39.8125 37.6875 39.8125 37.6875 39.75 40.3125 C38.60016131 43.22542468 37.22005799 44.70480519 34.8125 46.6875 C31.24778609 47.87573797 28.5566664 47.95024852 24.8125 47.6875 C22.375 46.1875 22.375 46.1875 20.8125 44.6875 C20.0390625 45.1825 20.0390625 45.1825 19.25 45.6875 C15.89847404 47.06248501 13.40284613 47.07217994 9.8125 46.6875 C7.375 44.6875 7.375 44.6875 5.8125 42.6875 C5.22082031 43.120625 4.62914062 43.55375 4.01953125 44 C3.22933594 44.556875 2.43914062 45.11375 1.625 45.6875 C0.84769531 46.244375 0.07039063 46.80125 -0.73046875 47.375 C-3.52923537 48.87004862 -5.06121417 49.09683366 -8.1875 48.6875 C-9.1775 48.0275 -10.1675 47.3675 -11.1875 46.6875 C-14.39863539 46.66387027 -14.39863539 46.66387027 -17.875 47.0625 C-19.05449219 47.17335938 -20.23398437 47.28421875 -21.44921875 47.3984375 C-22.35285156 47.49382812 -23.25648438 47.58921875 -24.1875 47.6875 C-25.53661472 42.79695915 -26.30454968 38.79379224 -26.1875 33.6875 C-32.55590695 33.81012658 -39.20699332 34.0203419 -44.15673828 38.44970703 C-47.79141937 42.61474602 -50.87452504 47.14596191 -53.79394531 51.83398438 C-55.37639566 53.93874314 -56.97551427 55.26874007 -59.1875 56.6875 C-59.8475 56.6875 -60.5075 56.6875 -61.1875 56.6875 C-59.63807028 51.81653831 -56.80482141 48.39640088 -53.625 44.5 C-50.07874991 40.31174198 -50.07874991 40.31174198 -47.1875 35.6875 C-48.8375 35.3575 -50.4875 35.0275 -52.1875 34.6875 C-50.3125 30.8125 -50.3125 30.8125 -49.1875 29.6875 C-48.115 29.60628906 -47.0425 29.52507812 -45.9375 29.44140625 C-41.35531741 28.52019662 -40.14793023 27.16485654 -37.1875 23.625 C-36.33800781 22.63113281 -35.48851562 21.63726562 -34.61328125 20.61328125 C-33.81277344 19.64777344 -33.01226562 18.68226563 -32.1875 17.6875 C-30.92118733 16.22523953 -29.65094923 14.76635936 -28.375 13.3125 C-27.8284375 12.68601563 -27.281875 12.05953125 -26.71875 11.4140625 C-24.62450795 9.05269774 -22.51828544 6.81850383 -20.1875 4.6875 C-19.5275 4.6875 -18.8675 4.6875 -18.1875 4.6875 C-18.1875 3.3675 -18.1875 2.0475 -18.1875 0.6875 C-12.35220692 -1.1488932 -6.0276956 -0.21665277 0 0 Z M15.8125 33.6875 C15.4825 35.6675 15.1525 37.6475 14.8125 39.6875 C17.86513664 40.66870464 19.75986336 40.66870464 22.8125 39.6875 C23.1425 40.3475 23.4725 41.0075 23.8125 41.6875 C25.1325 41.0275 26.4525 40.3675 27.8125 39.6875 C29.1325 40.6775 30.4525 41.6675 31.8125 42.6875 C31.20551257 38.55998551 29.77439209 35.3553852 27.8125 31.6875 C23.34410785 31.47471942 19.98987474 32.09611915 15.8125 33.6875 Z " fill="#F4C0D7" transform="translate(340.1875,213.3125)"/>
<path d="M0 0 C0.125 2.375 0.125 2.375 0 5 C-2 7 -2 7 -5.125 7.125 C-6.07375 7.08375 -7.0225 7.0425 -8 7 C-8.17015625 7.54527344 -8.3403125 8.09054688 -8.515625 8.65234375 C-10.32875234 14.29425594 -12.52205144 19.61687037 -15 25 C-10.05 24.67 -5.1 24.34 0 24 C-1 29 -1 29 -2 30 C-4.53049402 30.07313567 -7.03304837 30.09247527 -9.5625 30.0625 C-10.27341797 30.05798828 -10.98433594 30.05347656 -11.71679688 30.04882812 C-13.47790013 30.03700864 -15.23896036 30.01907263 -17 30 C-17.2578125 30.886875 -17.515625 31.77375 -17.78125 32.6875 C-20.76375884 40.79380607 -26.97110537 46.90768362 -34.46484375 51.0078125 C-38.29492295 52.50679573 -41.96771895 52.90378713 -46 52 C-48 50 -48 50 -48.5625 47.75 C-47.78148212 43.93169034 -45.74579243 42.56830104 -42.82421875 40.13671875 C-41 39 -41 39 -38 39 C-38.33 41.97 -38.66 44.94 -39 48 C-33.67467652 46.50890943 -31.54472557 44.85276212 -28.6875 40.0625 C-27.04365662 37.07655984 -25.524837 34.04967401 -24 31 C-28.95 31 -33.9 31 -39 31 C-39.33 30.01 -39.66 29.02 -40 28 C-37.82575883 25.49962266 -36.26954202 24.56371414 -33 24 C-33 23.34 -33 22.68 -33 22 C-31.41925436 21.18247697 -29.83528777 20.37118003 -28.25 19.5625 C-26.92742187 18.88380859 -26.92742187 18.88380859 -25.578125 18.19140625 C-23 17 -23 17 -20.8125 16.625 C-18.7850915 16.14083484 -18.7850915 16.14083484 -17.734375 13.93359375 C-17.40953125 13.10988281 -17.0846875 12.28617188 -16.75 11.4375 C-16.41484375 10.61121094 -16.0796875 9.78492188 -15.734375 8.93359375 C-15.49203125 8.29550781 -15.2496875 7.65742188 -15 7 C-33.99053712 4.58959865 -33.99053712 4.58959865 -52 9 C-52.83304005 11.03611012 -52.83304005 11.03611012 -53 13 C-51.515 13.804375 -51.515 13.804375 -50 14.625 C-49.01 15.40875 -48.02 16.1925 -47 17 C-46.625 20.25 -46.625 20.25 -47 23 C-49.6875 23.375 -49.6875 23.375 -53 23 C-56.47609168 19.83289425 -57.71044725 17.91691703 -59.125 13.4375 C-59 10 -59 10 -56.875 7.3125 C-55.92625 6.549375 -54.9775 5.78625 -54 5 C-53.278125 4.29875 -52.55625 3.5975 -51.8125 2.875 C-37.48759722 -6.67493519 -16.04231323 -1.42094459 0 0 Z " fill="#090507" transform="translate(174,219)"/>
<path d="M0 0 C0.66 0.33 1.32 0.66 2 1 C1.83757812 1.88429687 1.67515625 2.76859375 1.5078125 3.6796875 C0.68398668 9.4639345 0.85554624 15.29535518 0.875 21.125 C0.87113281 22.29160156 0.86726563 23.45820313 0.86328125 24.66015625 C0.86521484 26.34818359 0.86521484 26.34818359 0.8671875 28.0703125 C0.86887939 29.59809326 0.86887939 29.59809326 0.87060547 31.15673828 C0.99431868 33.87516095 1.38871358 36.35271093 2 39 C0.02 39 -1.96 39 -4 39 C-6.10706291 35.57602277 -6.08680713 32.96057533 -6 29 C-12.36840695 29.12262658 -19.01949332 29.3328419 -23.96923828 33.76220703 C-27.60391937 37.92724602 -30.68702504 42.45846191 -33.60644531 47.14648438 C-35.18889566 49.25124314 -36.78801427 50.58124007 -39 52 C-39.66 52 -40.32 52 -41 52 C-39.45057028 47.12903831 -36.61732141 43.70890088 -33.4375 39.8125 C-29.89124991 35.62424198 -29.89124991 35.62424198 -27 31 C-28.65 30.67 -30.3 30.34 -32 30 C-30.125 26.125 -30.125 26.125 -29 25 C-27.9275 24.91878906 -26.855 24.83757812 -25.75 24.75390625 C-21.16781741 23.83269662 -19.96043023 22.47735654 -17 18.9375 C-16.15050781 17.94363281 -15.30101562 16.94976562 -14.42578125 15.92578125 C-13.62527344 14.96027344 -12.82476562 13.99476563 -12 13 C-10.73368733 11.53773953 -9.46344923 10.07885936 -8.1875 8.625 C-7.37152344 7.68527344 -7.37152344 7.68527344 -6.5390625 6.7265625 C-4.45014122 4.38315335 -2.25327228 2.1849913 0 0 Z " fill="#0E060A" transform="translate(320,218)"/>
<path d="M0 0 C-0.55728913 3.34373475 -1.35173889 6.03312999 -3 9 C-2.34 9.33 -1.68 9.66 -1 10 C-0.957279 11.66611905 -0.95936168 13.33382885 -1 15 C-2 16 -2 16 -4.5625 16.0625 C-5.366875 16.041875 -6.17125 16.02125 -7 16 C-7 17.98 -7 19.96 -7 22 C-5.88625 22 -4.7725 22 -3.625 22 C-1.75 22 0.125 22 2 22 C2.99 21.67 3.98 21.34 5 21 C5.99 21.99 6.98 22.98 8 24 C7.690625 23.29875 7.38125 22.5975 7.0625 21.875 C6.711875 20.92625 6.36125 19.9775 6 19 C5.62875 18.05125 5.2575 17.1025 4.875 16.125 C5.02957366 12.26065848 5.87799732 11.65976005 8.625 9.0625 C10.7265625 7.22265625 10.7265625 7.22265625 13 6 C15.7734375 6.30859375 15.7734375 6.30859375 18 7 C18 8.65 18 10.3 18 12 C16.02 12.99 16.02 12.99 14 14 C14.515625 14.886875 15.03125 15.77375 15.5625 16.6875 C17 20 17 20 16.9375 22.625 C15.78766131 25.53792468 14.40755799 27.01730519 12 29 C8.43528609 30.18823797 5.7441664 30.26274852 2 30 C-0.4375 28.5 -0.4375 28.5 -2 27 C-2.515625 27.33 -3.03125 27.66 -3.5625 28 C-6.94783509 29.38885542 -9.37512765 29.45310904 -13 29 C-15.4375 26.5 -15.4375 26.5 -17 24 C-16.67 23.29875 -16.34 22.5975 -16 21.875 C-14.81148807 19.02441444 -14.81148807 19.02441444 -15.125 15.9375 C-14.96095705 12.08249062 -13.79643019 11.56969261 -11 9 C-9.64390576 6.93954637 -8.38996145 4.83818223 -7.1484375 2.70703125 C-5.07636418 -0.37288725 -3.79291506 0 0 0 Z " fill="#0A0607" transform="translate(363,231)"/>
<path d="M0 0 C0.99 0.33 1.98 0.66 3 1 C2.835 1.928125 2.67 2.85625 2.5 3.8125 C1.92251612 6.95621353 1.92251612 6.95621353 2 10 C2.7425 9.071875 3.485 8.14375 4.25 7.1875 C6.30071786 4.73706595 8.23258401 2.6604496 11 1 C11.99 1 12.98 1 14 1 C13.67 4.3 13.34 7.6 13 11 C13.61488281 10.3503125 14.22976563 9.700625 14.86328125 9.03125 C15.67152344 8.1959375 16.47976563 7.360625 17.3125 6.5 C18.11300781 5.6646875 18.91351563 4.829375 19.73828125 3.96875 C22 2 22 2 25 2 C25.1015405 6.7724033 24.80583141 11.3446104 24.21875 16.08203125 C23.96222723 18.00945241 23.96222723 18.00945241 24 20 C19.84732824 23.11450382 19.84732824 23.11450382 16.6875 22.6875 C16.130625 22.460625 15.57375 22.23375 15 22 C15.165 20.906875 15.33 19.81375 15.5 18.6875 C16.06718184 15.12474127 16.06718184 15.12474127 16 12 C15.63648438 12.56589844 15.27296875 13.13179687 14.8984375 13.71484375 C10.74099485 19.78044597 10.74099485 19.78044597 6.625 21 C5.75875 21 4.8925 21 4 21 C2.74458443 17.23375329 3.62938042 15.62811066 5 12 C4.23816406 12.95712891 4.23816406 12.95712891 3.4609375 13.93359375 C-2.23156089 20.76672384 -2.23156089 20.76672384 -6.5 22.0625 C-7.325 22.041875 -8.15 22.02125 -9 22 C-8.51438434 14.877637 -6.15852156 6.52924006 -1.3359375 1.140625 C-0.67464844 0.57601562 -0.67464844 0.57601562 0 0 Z " fill="#0E0A0B" transform="translate(251,237)"/>
<path d="M0 0 C0.84755859 0.00966797 1.69511719 0.01933594 2.56835938 0.02929688 C3.44943359 0.05443359 4.33050781 0.07957031 5.23828125 0.10546875 C6.13095703 0.11900391 7.02363281 0.13253906 7.94335938 0.14648438 C10.14644291 0.18182796 12.34830707 0.23116382 14.55078125 0.29296875 C13.50324792 2.55105213 12.43885991 4.79828286 11.36328125 7.04296875 C11.07130859 7.6771875 10.77933594 8.31140625 10.47851562 8.96484375 C8.48024315 13.09030951 6.56475111 15.82091266 2.55078125 18.29296875 C1.23078125 18.29296875 -0.08921875 18.29296875 -1.44921875 18.29296875 C-1.11921875 15.32296875 -0.78921875 12.35296875 -0.44921875 9.29296875 C-1.52171875 9.91171875 -2.59421875 10.53046875 -3.69921875 11.16796875 C-6.24702859 12.62533665 -8.8018123 14.02221366 -11.44921875 15.29296875 C-11.11921875 13.97296875 -10.78921875 12.65296875 -10.44921875 11.29296875 C-12.61588542 12.12630208 -12.61588542 12.12630208 -13.44921875 14.29296875 C-16.01171875 14.91796875 -16.01171875 14.91796875 -18.44921875 15.29296875 C-18.77921875 14.63296875 -19.10921875 13.97296875 -19.44921875 13.29296875 C-20.10921875 13.29296875 -20.76921875 13.29296875 -21.44921875 13.29296875 C-21.44921875 12.30296875 -21.44921875 11.31296875 -21.44921875 10.29296875 C-17.93955127 8.32755496 -14.31704125 7.34782943 -10.44921875 6.29296875 C-9.45921875 5.96296875 -8.46921875 5.63296875 -7.44921875 5.29296875 C-7.44921875 4.63296875 -7.44921875 3.97296875 -7.44921875 3.29296875 C-5.20128054 0.33718826 -3.64213756 -0.07333163 0 0 Z " fill="#EEBDD4" transform="translate(136.44921875,248.70703125)"/>
<path d="M0 0 C1.8828125 0.8359375 1.8828125 0.8359375 3.8828125 3.8359375 C4.34225812 9.44117411 4.08749056 13.02892042 0.8828125 17.8359375 C-3.32700171 22.34645272 -6.23719508 23.41917229 -12.359375 23.79296875 C-12.93945312 23.80714844 -13.51953125 23.82132812 -14.1171875 23.8359375 C-16.53413079 20.21052256 -16.75202321 19.12107857 -16.1171875 14.8359375 C-13.3677759 9.19560047 -7.18335951 -0.55664409 0 0 Z " fill="#130B0F" transform="translate(190.1171875,236.1640625)"/>
<path d="M0 0 C0.99 0.66 1.98 1.32 3 2 C2.34580901 7.06998019 0.1453591 11.41990777 -2 16 C1.7729691 12.55042825 4.24905507 9.16782943 6.69140625 4.671875 C8 3 8 3 10.08984375 2.203125 C10.72019531 2.13609375 11.35054687 2.0690625 12 2 C13 3 13 3 13.1875 5.875 C12.97452061 18.70700833 12.97452061 18.70700833 9.42578125 22.828125 C8.95527344 23.21484375 8.48476562 23.6015625 8 24 C7.01 23.67 6.02 23.34 5 23 C4.67 20.36 4.34 17.72 4 15 C2.8553125 16.423125 2.8553125 16.423125 1.6875 17.875 C-0.15534046 20.16609895 -1.46837417 21.31224944 -4 23 C-6.6875 22.625 -6.6875 22.625 -9 22 C-8.7408514 14.95115799 -8.14331785 8.89015221 -4 3 C-1.75 1 -1.75 1 0 0 Z " fill="#0B0809" transform="translate(227,236)"/>
<path d="M0 0 C0.495 0.99 0.495 0.99 1 2 C1.66 2 2.32 2 3 2 C2.01 7.61 1.02 13.22 0 19 C-4.66666667 19 -9.33333333 19 -14 19 C-15.34882408 19.63474075 -16.6846659 20.29848848 -18 21 C-17.67 21.66 -17.34 22.32 -17 23 C-13.7 23 -10.4 23 -7 23 C-7 23.33 -7 23.66 -7 24 C-8.77117187 23.98839844 -8.77117187 23.98839844 -10.578125 23.9765625 C-14.48525646 24.46710544 -16.03796913 25.65936808 -18.484375 28.7109375 C-19.59672739 30.24867881 -20.68483577 31.80420359 -21.75 33.375 C-22.84417659 34.92785952 -23.94298777 36.47746593 -25.046875 38.0234375 C-25.51963867 38.71356934 -25.99240234 39.40370117 -26.47949219 40.11474609 C-28.13824304 42.17140539 -29.78257254 43.56988763 -32 45 C-32.66 45 -33.32 45 -34 45 C-32.45057028 40.12903831 -29.61732141 36.70890088 -26.4375 32.8125 C-22.89124991 28.62424198 -22.89124991 28.62424198 -20 24 C-21.65 23.67 -23.3 23.34 -25 23 C-23.125 19.125 -23.125 19.125 -22 18 C-20.93007813 17.92136719 -19.86015625 17.84273437 -18.7578125 17.76171875 C-14.1323179 16.82411849 -12.87217986 15.38309531 -9.875 11.8125 C-9.029375 10.8225 -8.18375 9.8325 -7.3125 8.8125 C-6.549375 7.884375 -5.78625 6.95625 -5 6 C-4.13375 4.9790625 -4.13375 4.9790625 -3.25 3.9375 C-2.15070814 2.6383369 -1.07182364 1.32191582 0 0 Z " fill="#24171D" transform="translate(313,225)"/>
<path d="M0 0 C0.73476563 0.22816406 1.46953125 0.45632812 2.2265625 0.69140625 C2.2265625 2.34140625 2.2265625 3.99140625 2.2265625 5.69140625 C0.2465625 6.68140625 0.2465625 6.68140625 -1.7734375 7.69140625 C-1.2578125 8.57828125 -0.7421875 9.46515625 -0.2109375 10.37890625 C1.2265625 13.69140625 1.2265625 13.69140625 1.1640625 16.31640625 C0.01422381 19.22933093 -1.36587951 20.70871144 -3.7734375 22.69140625 C-7.32697679 23.87591935 -10.04357228 23.95782519 -13.7734375 23.69140625 C-15.7109375 22.19140625 -15.7109375 22.19140625 -16.7734375 20.69140625 C-15.1234375 18.71140625 -13.4734375 16.73140625 -11.7734375 14.69140625 C-10.4534375 15.68140625 -9.1334375 16.67140625 -7.7734375 17.69140625 C-8.0828125 16.99015625 -8.3921875 16.28890625 -8.7109375 15.56640625 C-9.0615625 14.61765625 -9.4121875 13.66890625 -9.7734375 12.69140625 C-10.1446875 11.74265625 -10.5159375 10.79390625 -10.8984375 9.81640625 C-10.74386384 5.95206473 -9.89544018 5.3511663 -7.1484375 2.75390625 C-3.55141751 -0.39515772 -3.55141751 -0.39515772 0 0 Z " fill="#040303" transform="translate(378.7734375,237.30859375)"/>
<path d="M0 0 C1.10228696 4.40914783 1.07654536 8.48382401 1 13 C-3.75 14.125 -3.75 14.125 -6 13 C-6.2475 13.886875 -6.495 14.77375 -6.75 15.6875 C-8.06475782 19.17160823 -9.41278481 21.33669024 -12 24 C-14.125 24.9375 -14.125 24.9375 -16 25 C-16.66 24.34 -17.32 23.68 -18 23 C-17.61121812 19.98694043 -16.73543126 18.60314689 -15 16 C-14.60986284 14.0103005 -14.26797351 12.00980131 -14 10 C-14.99 10 -15.98 10 -17 10 C-16.67 8.68 -16.34 7.36 -16 6 C-12.535 5.505 -12.535 5.505 -9 5 C-9 7.97 -9 10.94 -9 14 C-7.01523032 11.02284548 -6.78904773 10.33143082 -6.625 7 C-6.24629237 3.25423729 -6.24629237 3.25423729 -4.0625 1 C-2 0 -2 0 0 0 Z " fill="#11090C" transform="translate(345,235)"/>
<path d="M0 0 C1.65 0.33 3.3 0.66 5 1 C5 4.63 5 8.26 5 12 C0 13 0 13 -2 12 C-2.2475 12.886875 -2.495 13.77375 -2.75 14.6875 C-4.07435898 18.19705131 -5.31115465 20.3879788 -8 23 C-10.75 23.3125 -10.75 23.3125 -13 23 C-13.6875 21.25 -13.6875 21.25 -14 19 C-13.01439389 17.65599167 -12.01241685 16.32392972 -11 15 C-10.27954633 11.84881675 -10.27954633 11.84881675 -10 9 C-10.99 9 -11.98 9 -13 9 C-12.67 7.68 -12.34 6.36 -12 5 C-8.535 4.505 -8.535 4.505 -5 4 C-5 6.97 -5 9.94 -5 13 C-2.82909387 9.19286613 -2.82909387 9.19286613 -2.5 5.375 C-2 2 -2 2 0 0 Z " fill="#0E090B" transform="translate(211,236)"/>
<path d="M0 0 C0.99 0.33 1.98 0.66 3 1 C3.27452359 7.17678082 3.61574873 15.96235631 -0.57421875 20.828125 C-1.04472656 21.21484375 -1.51523438 21.6015625 -2 22 C-2.99 21.67 -3.98 21.34 -5 21 C-5.33 18.36 -5.66 15.72 -6 13 C-6.99 13.99 -7.98 14.98 -9 16 C-9.99 15.34 -10.98 14.68 -12 14 C-11.278125 13.34 -10.55625 12.68 -9.8125 12 C-6.99397212 9.21350085 -5.08617804 6.09070593 -3.11328125 2.671875 C-2 1 -2 1 0 0 Z " fill="#131011" transform="translate(237,238)"/>
<path d="M0 0 C0.1015405 4.7724033 -0.19416859 9.3446104 -0.78125 14.08203125 C-1.03777277 16.00945241 -1.03777277 16.00945241 -1 18 C-5.15267176 21.11450382 -5.15267176 21.11450382 -8.3125 20.6875 C-8.869375 20.460625 -9.42625 20.23375 -10 20 C-8.15194055 5.52353427 -8.15194055 5.52353427 -5.0625 1.4375 C-3 0 -3 0 0 0 Z " fill="#0B0507" transform="translate(276,239)"/>
<path d="M0 0 C1 2.5625 1 2.5625 1 6 C-1.33115455 8.77412929 -3.98784002 10.99189335 -7 13 C-7.66 13 -8.32 13 -9 13 C-8.67 11.68 -8.34 10.36 -8 9 C-10.16666667 9.83333333 -10.16666667 9.83333333 -11 12 C-13.5625 12.625 -13.5625 12.625 -16 13 C-16.33 12.34 -16.66 11.68 -17 11 C-17.66 11 -18.32 11 -19 11 C-19 10.01 -19 9.02 -19 8 C-15.49033252 6.03458621 -11.8678225 5.05486068 -8 4 C-7.01 3.67 -6.02 3.34 -5 3 C-5 2.34 -5 1.68 -5 1 C-3 0 -3 0 0 0 Z " fill="#F4C5DA" transform="translate(134,251)"/>
<path d="M0 0 C0.33 0 0.66 0 1 0 C1.50423019 5.29441695 0.18923033 7.81413519 -3 12 C-3.66 11.01 -4.32 10.02 -5 9 C-5.98120464 12.05263664 -5.98120464 13.94736336 -5 17 C-9.11995777 18.62882052 -11.72025411 19.30770013 -16 18 C-16.66 17.67 -17.32 17.34 -18 17 C-18 16.01 -18 15.02 -18 14 C-16.906875 13.4225 -15.81375 12.845 -14.6875 12.25 C-11.68249634 10.53545154 -9.83444131 8.99303582 -8 6 C-7.34 5.01 -6.68 4.02 -6 3 C-5.67 3.99 -5.34 4.98 -5 6 C-2.9837767 5.28436734 -2.9837767 5.28436734 -1 4 C-0.19471111 1.94999129 -0.19471111 1.94999129 0 0 Z " fill="#F0C8DA" transform="translate(200,245)"/>
<path d="M0 0 C0 0.66 0 1.32 0 2 C1.32 1.67 2.64 1.34 4 1 C4 1.99 4 2.98 4 4 C3.34 4 2.68 4 2 4 C1.938125 4.78375 1.87625 5.5675 1.8125 6.375 C1.544375 7.24125 1.27625 8.1075 1 9 C-1.5625 10.3125 -1.5625 10.3125 -4 11 C-6 9.375 -6 9.375 -8 7 C-8.25 3.75 -8.25 3.75 -8 1 C-3.375 -1.125 -3.375 -1.125 0 0 Z " fill="#F3B7D2" transform="translate(166,196)"/>
<path d="M0 0 C1.22602512 3.67807537 0.70295577 5.88243927 0.0625 9.6875 C-0.13214844 10.86699219 -0.32679688 12.04648438 -0.52734375 13.26171875 C-0.68332031 14.16535156 -0.83929688 15.06898438 -1 16 C-4.63 16 -8.26 16 -12 16 C-9.7757418 12.0625591 -7.20149367 8.6626663 -4.3125 5.1875 C-3.50425781 4.21167969 -2.69601562 3.23585937 -1.86328125 2.23046875 C-1.24839844 1.49441406 -0.63351562 0.75835937 0 0 Z " fill="#E3B7CA" transform="translate(314,228)"/>
<path d="M0 0 C1.65 0.33 3.3 0.66 5 1 C5 4.63 5 8.26 5 12 C0 13 0 13 -2 12 C-2.66 13.98 -3.32 15.96 -4 18 C-4.33 18 -4.66 18 -5 18 C-4.49302778 14.02871764 -3.86854664 10.10983719 -3.0625 6.1875 C-2.90910156 5.43855469 -2.75570312 4.68960938 -2.59765625 3.91796875 C-2 2 -2 2 0 0 Z " fill="#130E12" transform="translate(211,236)"/>
<path d="M0 0 C3.21743924 0.18562149 5.35756683 0.82635498 8.25 2.1875 C7.10805571 4.98813432 5.92198768 7.66082213 4.25 10.1875 C1.5 11.1875 1.5 11.1875 -0.75 11.1875 C-3.06309135 8.68165104 -3.72826344 7.46464111 -4 4 C-3.66666667 0.25 -3.66666667 0.25 0 0 Z " fill="#F69FC7" transform="translate(320.75,191.8125)"/>
<path d="M0 0 C2.475 0.495 2.475 0.495 5 1 C4.38125 2.010625 3.7625 3.02125 3.125 4.0625 C1.07056045 7.63227085 -0.02269575 11.009341 -1 15 C-3.475 14.01 -3.475 14.01 -6 13 C-6 12.01 -6 11.02 -6 10 C-5.34 10 -4.68 10 -4 10 C-4.33 9.34 -4.66 8.68 -5 8 C-7.35599235 7.53248212 -7.35599235 7.53248212 -10.0625 7.375 C-10.98160156 7.30023438 -11.90070313 7.22546875 -12.84765625 7.1484375 C-13.55792969 7.09945312 -14.26820313 7.05046875 -15 7 C-15 7.66 -15 8.32 -15 9 C-15.99 9.33 -16.98 9.66 -18 10 C-17.67 8.68 -17.34 7.36 -17 6 C-12.05 5.67 -7.1 5.34 -2 5 C-1.34 3.35 -0.68 1.7 0 0 Z " fill="#EFC6D8" transform="translate(174,243)"/>
<path d="M0 0 C-0.875 4.875 -0.875 4.875 -2 6 C-4.18639453 6.07258946 -6.37500389 6.08373783 -8.5625 6.0625 C-10.35880859 6.04896484 -10.35880859 6.04896484 -12.19140625 6.03515625 C-13.11824219 6.02355469 -14.04507813 6.01195312 -15 6 C-14.67 4.35 -14.34 2.7 -14 1 C-12.41693353 0.83081732 -10.83353281 0.66476064 -9.25 0.5 C-8.36828125 0.4071875 -7.4865625 0.314375 -6.578125 0.21875 C-4 0 -4 0 0 0 Z " fill="#0F070B" transform="translate(174,243)"/>
<path d="M0 0 C3.34373475 0.55728913 6.03312999 1.35173889 9 3 C9.66 2.34 10.32 1.68 11 1 C14.625 0.875 14.625 0.875 18 1 C17.34 3.31 16.68 5.62 16 8 C15.67 8 15.34 8 15 8 C15 6.35 15 4.7 15 3 C10.14032976 5.50346649 6.72143296 9.08552441 3 13 C1.58312881 8.74938644 2.80679961 6.28148375 4 2 C2.68 1.67 1.36 1.34 0 1 C0 0.67 0 0.34 0 0 Z " fill="#E1CAD3" transform="translate(261,236)"/>
<path d="M0 0 C0.93330261 2.52913484 1.11602661 3.68120307 0.1796875 6.25390625 C-2.37396377 10.77249278 -4.16696637 13.71066828 -9 16 C-9.474375 16.5775 -9.94875 17.155 -10.4375 17.75 C-12 19 -12 19 -15.1875 18.6875 C-16.115625 18.460625 -17.04375 18.23375 -18 18 C-16.05223315 16.51969719 -14.10499229 15.07013655 -12.0703125 13.7109375 C-6.60454811 9.95734027 -3.33905618 5.69157304 0 0 Z " fill="#E9B9CF" transform="translate(155,253)"/>
<path d="M0 0 C-0.875 5.875 -0.875 5.875 -2 7 C-4.01964199 7.07244053 -6.04167124 7.08377188 -8.0625 7.0625 C-9.16722656 7.05347656 -10.27195313 7.04445312 -11.41015625 7.03515625 C-12.69212891 7.01775391 -12.69212891 7.01775391 -14 7 C-14 6.34 -14 5.68 -14 5 C-12.421924 4.15675328 -10.8372958 3.32576082 -9.25 2.5 C-8.36828125 2.0359375 -7.4865625 1.571875 -6.578125 1.09375 C-4 0 -4 0 0 0 Z " fill="#DCB9CA" transform="translate(155,236)"/>
<path d="M0 0 C1.98 0 3.96 0 6 0 C5.01 0.495 5.01 0.495 4 1 C3.855625 2.11375 3.71125 3.2275 3.5625 4.375 C3 8 3 8 1.75 9.875 C-0.45167104 11.29035995 -2.42468508 11.65198447 -5 12 C-4.25 5.375 -4.25 5.375 -2 2 C-1.34 2 -0.68 2 0 2 C0 1.34 0 0.68 0 0 Z " fill="#F9C1DC" transform="translate(143,250)"/>
<path d="M0 0 C1.32 0.66 2.64 1.32 4 2 C2.61710902 3.80167496 1.21813511 5.59101287 -0.1875 7.375 C-0.96480469 8.37273437 -1.74210937 9.37046875 -2.54296875 10.3984375 C-5.00069064 13.00073127 -6.61240417 14.00117068 -10 15 C-8.59601721 10.89889238 -6.62912962 8.01910841 -3.875 4.6875 C-3.15054687 3.80449219 -2.42609375 2.92148437 -1.6796875 2.01171875 C-1.12539063 1.34785156 -0.57109375 0.68398437 0 0 Z " fill="#190E12" transform="translate(289,255)"/>
<path d="M0 0 C0.33 0.66 0.66 1.32 1 2 C3.64 2 6.28 2 9 2 C8.67 3.32 8.34 4.64 8 6 C1.565 6.495 1.565 6.495 -5 7 C-5.33 6.01 -5.66 5.02 -6 4 C-4.02 2.68 -2.04 1.36 0 0 Z " fill="#030102" transform="translate(300,242)"/>
<path d="M0 0 C0.99 0.33 1.98 0.66 3 1 C-5.44432508 11.55061931 -5.44432508 11.55061931 -9.9375 12.0625 C-11.4534375 12.0315625 -11.4534375 12.0315625 -13 12 C-13.99 12.495 -13.99 12.495 -15 13 C-14.67 11.68 -14.34 10.36 -14 9 C-8.25 7.875 -8.25 7.875 -6 9 C-6.66 7.02 -7.32 5.04 -8 3 C-7.01 3.33 -6.02 3.66 -5 4 C-4.01 3.01 -3.02 2.02 -2 1 C-1.34 1.33 -0.68 1.66 0 2 C0 1.34 0 0.68 0 0 Z " fill="#EBBDD4" transform="translate(304,232)"/>
<path d="M0 0 C3.465 1.98 3.465 1.98 7 4 C6.01 5.485 6.01 5.485 5 7 C4.34 7 3.68 7 3 7 C2.773125 7.5775 2.54625 8.155 2.3125 8.75 C0.67197539 11.5623279 -1.43778814 13.02970461 -4 15 C-3.5253725 12.6865641 -3.04517721 10.37426981 -2.5625 8.0625 C-2.29566406 6.77472656 -2.02882812 5.48695313 -1.75390625 4.16015625 C-1 1 -1 1 0 0 Z " fill="#E0CBD5" transform="translate(255,234)"/>
<path d="M0 0 C0.66 0 1.32 0 2 0 C4 3 4 3 3.8125 5.4375 C2.93417924 8.20758856 2.01394701 9.90859349 0 12 C-0.99 12 -1.98 12 -3 12 C-3.29162929 7.04230204 -3.12940055 3.97193147 0 0 Z " fill="#DEBECC" transform="translate(185,244)"/>
<path d="M0 0 C1.875 0.1875 1.875 0.1875 4 1 C5.25 3.5625 5.25 3.5625 6 6 C4.8125 7.5625 4.8125 7.5625 3 9 C0.3125 8.6875 0.3125 8.6875 -2 8 C-2.6875 6.25 -2.6875 6.25 -3 4 C-1.5625 1.75 -1.5625 1.75 0 0 Z " fill="#F3ABCD" transform="translate(155,288)"/>
<path d="M0 0 C-0.55728913 3.34373475 -1.35173889 6.03312999 -3 9 C-3.66 9 -4.32 9 -5 9 C-5.66 8.34 -6.32 7.68 -7 7 C-7 7.66 -7 8.32 -7 9 C-8.98 9.99 -8.98 9.99 -11 11 C-9.38688629 4.69419186 -6.97004455 0 0 0 Z " fill="#1E1117" transform="translate(363,231)"/>
<path d="M0 0 C1.04449911 3.13349732 0.93423645 3.98968256 0 7 C-2.3125 7.625 -2.3125 7.625 -5 8 C-5.99 7.34 -6.98 6.68 -8 6 C-7.67 4.68 -7.34 3.36 -7 2 C-4.69 1.34 -2.38 0.68 0 0 Z " fill="#EDB7CE" transform="translate(354,198)"/>
<path d="M0 0 C0.66 0.66 1.32 1.32 2 2 C1.9765625 4.1640625 1.9765625 4.1640625 1.625 6.625 C1.51414063 7.44226563 1.40328125 8.25953125 1.2890625 9.1015625 C1.19367188 9.72804687 1.09828125 10.35453125 1 11 C0.01 11.33 -0.98 11.66 -2 12 C-2.66 12.66 -3.32 13.32 -4 14 C-3.67 9.71 -3.34 5.42 -3 1 C-2.01 0.67 -1.02 0.34 0 0 Z " fill="#F5E9F0" transform="translate(243,239)"/>
<path d="M0 0 C2.475 0.99 2.475 0.99 5 2 C5.042721 3.66611905 5.04063832 5.33382885 5 7 C4 8 4 8 1.5625 8.1875 C-1 8 -1 8 -3 6 C-2.63318342 3.06546739 -2.13562754 2.13562754 0 0 Z " fill="#F4AAC8" transform="translate(152,184)"/>
<path d="M0 0 C0.66 0 1.32 0 2 0 C0.6549765 4.40189509 -1.12742263 6.51048598 -5 9 C-6.32 9 -7.64 9 -9 9 C-8.67 6.36 -8.34 3.72 -8 1 C-7.34 1.99 -6.68 2.98 -6 4 C-4.35 3.67 -2.7 3.34 -1 3 C-0.67 2.01 -0.34 1.02 0 0 Z " fill="#E1B8C9" transform="translate(144,258)"/>
<path d="M0 0 C0.99 0.33 1.98 0.66 3 1 C3 2.32 3 3.64 3 5 C3.66 5.33 4.32 5.66 5 6 C0.545 8.97 0.545 8.97 -4 12 C-3.67 9.69 -3.34 7.38 -3 5 C-2.34 5 -1.68 5 -1 5 C-0.67 3.35 -0.34 1.7 0 0 Z " fill="#F6C6DC" transform="translate(340,250)"/>
<path d="M0 0 C0.33 0.66 0.66 1.32 1 2 C0.690625 2.7425 0.38125 3.485 0.0625 4.25 C-1.13278785 7.34368621 -1.15290981 9.71243908 -1 13 C-4.04386724 13.08226668 -6.07175348 12.97608217 -9 12 C-9 10 -9 10 -6.75 7.6875 C-5.38875 6.3571875 -5.38875 6.3571875 -4 5 C-2.64444707 3.35135455 -1.30368347 1.68996005 0 0 Z " fill="#E8D6DE" transform="translate(268,247)"/>
<path d="M0 0 C0.6875 1.8125 0.6875 1.8125 1 4 C-0.4375 5.75 -0.4375 5.75 -2 7 C-3.32 6.34 -4.64 5.68 -6 5 C-6 3.35 -6 1.7 -6 0 C-3.50907189 -1.24546405 -2.58919267 -0.7767578 0 0 Z " fill="#F4B2CE" transform="translate(304,201)"/>
<path d="M0 0 C0 0.66 0 1.32 0 2 C1.32 1.67 2.64 1.34 4 1 C4 1.99 4 2.98 4 4 C2.68 3.67 1.36 3.34 0 3 C-0.33 3.66 -0.66 4.32 -1 5 C-1.33 4.34 -1.66 3.68 -2 3 C-2.99 2.67 -3.98 2.34 -5 2 C-5.33 3.65 -5.66 5.3 -6 7 C-6.66 7 -7.32 7 -8 7 C-8 5.02 -8 3.04 -8 1 C-3.375 -1.125 -3.375 -1.125 0 0 Z " fill="#F5B9D7" transform="translate(166,196)"/>
<path d="M0 0 C2.97851562 0.390625 2.97851562 0.390625 5.95703125 0.78125 C8.15471706 1.053233 8.15471706 1.053233 11 1 C11 2.32 11 3.64 11 5 C9.35 5.33 7.7 5.66 6 6 C5.67 5.34 5.34 4.68 5 4 C4.01 3.7834375 4.01 3.7834375 3 3.5625 C2.34 3.376875 1.68 3.19125 1 3 C0.67 2.01 0.34 1.02 0 0 Z " fill="#F6EAF1" transform="translate(228,233)"/>
<path d="M0 0 C3.37462715 0.54723683 5.08235 1.0549 8 3 C8.33 3.99 8.66 4.98 9 6 C11.64 6 14.28 6 17 6 C17 6.33 17 6.66 17 7 C11.26288519 7.34422689 6.93016931 7.36694489 2 4 C0.625 1.8125 0.625 1.8125 0 0 Z " fill="#F1C5D8" transform="translate(116,281)"/>
<path d="M0 0 C0.33 0 0.66 0 1 0 C1.50423019 5.29441695 0.18923033 7.81413519 -3 12 C-3.66 11.01 -4.32 10.02 -5 9 C-5.99 8.67 -6.98 8.34 -8 8 C-7.67 6.35 -7.34 4.7 -7 3 C-6.01 4.485 -6.01 4.485 -5 6 C-2.9837767 5.28436734 -2.9837767 5.28436734 -1 4 C-0.19471111 1.94999129 -0.19471111 1.94999129 0 0 Z " fill="#D7C1CB" transform="translate(200,245)"/>
<path d="M0 0 C1.33804687 0.04060547 1.33804687 0.04060547 2.703125 0.08203125 C3.37859375 0.11683594 4.0540625 0.15164062 4.75 0.1875 C4.75 0.5175 4.75 0.8475 4.75 1.1875 C3.533125 1.22875 2.31625 1.27 1.0625 1.3125 C-2.46271475 1.71949637 -4.00280133 2.49766733 -6.25 5.25 C-6.91 6.219375 -7.57 7.18875 -8.25 8.1875 C-9.24 7.8575 -10.23 7.5275 -11.25 7.1875 C-8.97223512 1.68290154 -5.91789024 -0.23360093 0 0 Z " fill="#2B1D24" transform="translate(301.25,247.8125)"/>
<path d="M0 0 C2.4375 0.375 2.4375 0.375 5 1 C5.33 1.66 5.66 2.32 6 3 C5.01 3.495 5.01 3.495 4 4 C4 5.98 4 7.96 4 10 C3.67 9.34 3.34 8.68 3 8 C2.34 8 1.68 8 1 8 C0.67 5.36 0.34 2.72 0 0 Z M-1 8 C1 9 1 9 1 9 Z " fill="#E0B9CA" transform="translate(345,240)"/>
<path d="M0 0 C0.66 0.66 1.32 1.32 2 2 C2.66 1.34 3.32 0.68 4 0 C4.66 0.33 5.32 0.66 6 1 C5.34 3.64 4.68 6.28 4 9 C2.68 8.67 1.36 8.34 0 8 C0 5.36 0 2.72 0 0 Z " fill="#D4CBD1" transform="translate(238,249)"/>
<path d="M0 0 C0.99 0.66 1.98 1.32 3 2 C1.7580393 5.43927579 0.44259716 8.25207819 -2 11 C-2.66 11 -3.32 11 -4 11 C-3.52269162 9.5410574 -3.04308958 8.08286504 -2.5625 6.625 C-2.29566406 5.81289062 -2.02882812 5.00078125 -1.75390625 4.1640625 C-1 2 -1 2 0 0 Z " fill="#D7CDD0" transform="translate(229,241)"/>
<path d="M0 0 C0.99 0.33 1.98 0.66 3 1 C2.01 1.33 1.02 1.66 0 2 C0.33 3.32 0.66 4.64 1 6 C0.38125 6.268125 -0.2375 6.53625 -0.875 6.8125 C-3.2995233 7.95556848 -3.2995233 7.95556848 -5 11 C-5.99 10.67 -6.98 10.34 -8 10 C-5.36 6.7 -2.72 3.4 0 0 Z " fill="#E6C0D1" transform="translate(298,249)"/>
<path d="M0 0 C1.42662219 2.85324437 1.31033868 4.83454549 1 8 C-1 10.875 -1 10.875 -3 13 C-2.67 9.37 -2.34 5.74 -2 2 C-2.66 1.67 -3.32 1.34 -4 1 C-2 0 -2 0 0 0 Z " fill="#B696A4" transform="translate(338,238)"/>
<path d="M0 0 C0.33 0.99 0.66 1.98 1 3 C-0.109375 4.82421875 -0.109375 4.82421875 -1.75 6.6875 C-2.28109375 7.31011719 -2.8121875 7.93273437 -3.359375 8.57421875 C-5 10 -5 10 -8 10 C-8 7 -8 7 -6.25 5.17578125 C-5.5075 4.56089844 -4.765 3.94601563 -4 3.3125 C-3.2575 2.68988281 -2.515 2.06726563 -1.75 1.42578125 C-1.1725 0.95527344 -0.595 0.48476562 0 0 Z " fill="#180A11" transform="translate(307,234)"/>
<path d="M0 0 C0 0.33 0 0.66 0 1 C-2.62275173 1.55561711 -5.24707977 2.09492378 -7.875 2.625 C-8.62136719 2.78484375 -9.36773437 2.9446875 -10.13671875 3.109375 C-12.0758447 3.49370627 -14.03835574 3.75531287 -16 4 C-16.66 3.34 -17.32 2.68 -18 2 C-11.84629161 0.176679 -6.40353322 -0.2361959 0 0 Z " fill="#EFCCDE" transform="translate(320,213)"/>
<path d="M0 0 C0.33 1.32 0.66 2.64 1 4 C-0.32 4 -1.64 4 -3 4 C-3 3.34 -3 2.68 -3 2 C-3.61875 2.185625 -4.2375 2.37125 -4.875 2.5625 C-7 3 -7 3 -9 2 C-9 1.34 -9 0.68 -9 0 C-5.52176885 -1.15941038 -3.54104422 -0.70820884 0 0 Z " fill="#F9E6EF" transform="translate(264,259)"/>
<path d="M0 0 C1.65 0 3.3 0 5 0 C4.01 0.495 4.01 0.495 3 1 C3.0825 2.2375 3.165 3.475 3.25 4.75 C3.2737948 8.10506698 3.19641677 8.75447904 1 11.5 C0.34 11.995 -0.32 12.49 -1 13 C-1.66 12.67 -2.32 12.34 -3 12 C-2.319375 11.505 -1.63875 11.01 -0.9375 10.5 C1.19795864 8.25732688 1.19795864 8.25732688 1.04296875 5.953125 C0.77740767 3.95610564 0.39509536 1.97547682 0 0 Z " fill="#F1E4EA" transform="translate(189,202)"/>
<path d="M0 0 C0.33 1.32 0.66 2.64 1 4 C2.98 3.67 4.96 3.34 7 3 C7 3.99 7 4.98 7 6 C4.35261084 7.4606285 3.10551666 8 0 8 C0 5.36 0 2.72 0 0 Z " fill="#25151C" transform="translate(134,263)"/>
<path d="M0 0 C0 3 0 3 -2 6 C-5.625 6.1875 -5.625 6.1875 -9 6 C-6.22719294 2.91910327 -3.93673644 1.31224548 0 0 Z " fill="#F4CFE1" transform="translate(151,236)"/>
<path d="M0 0 C2.64 0 5.28 0 8 0 C8 0.99 8 1.98 8 3 C6.35 3.33 4.7 3.66 3 4 C2.67 3.34 2.34 2.68 2 2 C1.34 2 0.68 2 0 2 C0 1.34 0 0.68 0 0 Z " fill="#F7C0D8" transform="translate(115,260)"/>
<path d="M0 0 C0.33 0 0.66 0 1 0 C1 1.65 1 3.3 1 5 C1.99 5.33 2.98 5.66 4 6 C2.02579865 8.52259061 1.03254358 8.9929808 -2.1875 9.6875 C-3.5796875 9.8421875 -3.5796875 9.8421875 -5 10 C-4.67 8.68 -4.34 7.36 -4 6 C-2.68 6 -1.36 6 0 6 C0 4.02 0 2.04 0 0 Z " fill="#20121A" transform="translate(313,238)"/>
<path d="M0 0 C1.32 0.66 2.64 1.32 4 2 C-0.18461538 6.92307692 -0.18461538 6.92307692 -4.3125 7.3125 C-5.199375 7.209375 -6.08625 7.10625 -7 7 C-6.67 6.01 -6.34 5.02 -6 4 C-6 4.66 -6 5.32 -6 6 C-1.93975679 3.96197865 -1.93975679 3.96197865 0 0 Z " fill="#C7A3B2" transform="translate(369,238)"/>
<path d="M0 0 C1.10228696 4.40914783 1.07654536 8.48382401 1 13 C-0.5 12 -0.5 12 -2 10 C-2.27345479 7.28153765 -2.13491285 4.74322801 -2 2 C-2.66 1.67 -3.32 1.34 -4 1 C-2 0 -2 0 0 0 Z " fill="#2E1A22" transform="translate(345,235)"/>
<path d="M0 0 C1.98 0.495 1.98 0.495 4 1 C4.33 2.32 4.66 3.64 5 5 C3.35 5.33 1.7 5.66 0 6 C-1.24546405 3.50907189 -0.7767578 2.58919267 0 0 Z " fill="#F898C6" transform="translate(161,198)"/>
<path d="M0 0 C1.65 0.33 3.3 0.66 5 1 C3.85805571 3.80063432 2.67198768 6.47332213 1 9 C-1.75 10 -1.75 10 -4 10 C-4.33 9.34 -4.66 8.68 -5 8 C-3.35 7.67 -1.7 7.34 0 7 C0 4.69 0 2.38 0 0 Z " fill="#F5C4DA" transform="translate(324,193)"/>
<path d="M0 0 C1 2 1 2 0.4375 4.5 C-1 7 -1 7 -4.125 8.3125 C-5.07375 8.539375 -6.0225 8.76625 -7 9 C-2.85714286 2.57142857 -2.85714286 2.57142857 0 0 Z " fill="#D3C5CC" transform="translate(256,248)"/>
<path d="M0 0 C0.99 0.33 1.98 0.66 3 1 C2.67 1.99 2.34 2.98 2 4 C-0.43276386 5.18519265 -2.28017286 6 -5 6 C-5 5.34 -5 4.68 -5 4 C-2.6875 1.8125 -2.6875 1.8125 0 0 Z " fill="#292125" transform="translate(255,245)"/>
<path d="M0 0 C0.66 0.33 1.32 0.66 2 1 C2.33 1.99 2.66 2.98 3 4 C2.01 5.485 2.01 5.485 1 7 C0.01 6.67 -0.98 6.34 -2 6 C-2 4.35 -2 2.7 -2 1 C-1.34 0.67 -0.68 0.34 0 0 Z " fill="#EBE2E6" transform="translate(232,236)"/>
<path d="M0 0 C0 0.99 0 1.98 0 3 C-0.639375 3.103125 -1.27875 3.20625 -1.9375 3.3125 C-2.618125 3.539375 -3.29875 3.76625 -4 4 C-4.33 4.99 -4.66 5.98 -5 7 C-5.99 7.33 -6.98 7.66 -8 8 C-7.34 5.69 -6.68 3.38 -6 1 C-4.02 0.67 -2.04 0.34 0 0 Z " fill="#E2C4D0" transform="translate(172,225)"/>
<path d="M0 0 C1.4540625 0.0309375 1.4540625 0.0309375 2.9375 0.0625 C2.2775 0.7225 1.6175 1.3825 0.9375 2.0625 C-0.0525 2.0625 -1.0425 2.0625 -2.0625 2.0625 C-1.7325 4.0425 -1.4025 6.0225 -1.0625 8.0625 C-2.0525 8.5575 -2.0525 8.5575 -3.0625 9.0625 C-4.42873674 6.33002652 -4.190926 4.08051098 -4.0625 1.0625 C-3.0625 0.0625 -3.0625 0.0625 0 0 Z " fill="#F5BCD6" transform="translate(321.0625,191.9375)"/>
<path d="M0 0 C0.66 0 1.32 0 2 0 C2.042721 1.66611905 2.04063832 3.33382885 2 5 C1 6 1 6 -1.4375 6.1875 C-4 6 -4 6 -6 4 C-5.67 3.01 -5.34 2.02 -5 1 C-4.67 1.66 -4.34 2.32 -4 3 C-1.97536745 3.65213292 -1.97536745 3.65213292 0 4 C0 2.68 0 1.36 0 0 Z " fill="#F4C2D9" transform="translate(155,186)"/>
<path d="M0 0 C1 4 1 4 -0.3125 6.25 C-1.1478125 7.11625 -1.1478125 7.11625 -2 8 C-2.66 8 -3.32 8 -4 8 C-4.33 8.99 -4.66 9.98 -5 11 C-5.66 10.67 -6.32 10.34 -7 10 C-3.535 5.05 -3.535 5.05 0 0 Z " fill="#DCB4C6" transform="translate(155,253)"/>
<path d="M0 0 C0.33 0 0.66 0 1 0 C1 2.64 1 5.28 1 8 C-1.97 7.505 -1.97 7.505 -5 7 C-4.19152271 5.83054208 -3.37810888 4.66449539 -2.5625 3.5 C-2.11003906 2.8503125 -1.65757812 2.200625 -1.19140625 1.53125 C-0.79824219 1.0259375 -0.40507812 0.520625 0 0 Z " fill="#CDBFC5" transform="translate(231,250)"/>
<path d="M0 0 C0.66 0 1.32 0 2 0 C2.33 0.66 2.66 1.32 3 2 C3.99 2.66 4.98 3.32 6 4 C3.34771188 5.07525194 0.71631546 6.09456151 -2 7 C-1.34 4.69 -0.68 2.38 0 0 Z " fill="#E5D5DC" transform="translate(252,255)"/>
<path d="M0 0 C0 0.66 0 1.32 0 2 C-1.670625 2.2165625 -1.670625 2.2165625 -3.375 2.4375 C-6.82142047 2.78372035 -6.82142047 2.78372035 -9 4 C-8.67 2.68 -8.34 1.36 -8 0 C-4.94736336 -0.98120464 -3.05263664 -0.98120464 0 0 Z " fill="#F0C5D9" transform="translate(298,241)"/>
<path d="M0 0 C2.64 0 5.28 0 8 0 C7.34 2.31 6.68 4.62 6 7 C5.67 7 5.34 7 5 7 C5 5.35 5 3.7 5 2 C3.02 2.99 1.04 3.98 -1 5 C-0.67 3.35 -0.34 1.7 0 0 Z " fill="#C7A6B4" transform="translate(271,237)"/>
<path d="M0 0 C0.33 1.32 0.66 2.64 1 4 C-1.97 6.475 -1.97 6.475 -5 9 C-4.5206753 4.68607774 -3.2542015 2.83430453 0 0 Z " fill="#F1CCDB" transform="translate(114,260)"/>
<path d="M0 0 C2.2109885 0.42793326 3.98119242 0.99059621 6 2 C5.67 2.99 5.34 3.98 5 5 C3.68 4.67 2.36 4.34 1 4 C1 3.34 1 2.68 1 2 C0.34 1.67 -0.32 1.34 -1 1 C-0.67 0.67 -0.34 0.34 0 0 Z " fill="#E3CCD8" transform="translate(272,257)"/>
<path d="M0 0 C2 4 2 4 1.125 6.75 C0.75375 7.4925 0.3825 8.235 0 9 C-0.99 9 -1.98 9 -3 9 C-2.01 6.03 -1.02 3.06 0 0 Z " fill="#D8B5C5" transform="translate(163,233)"/>
<path d="M0 0 C1.65 0 3.3 0 5 0 C4.67 1.32 4.34 2.64 4 4 C2.35 4 0.7 4 -1 4 C-0.67 2.68 -0.34 1.36 0 0 Z " fill="#F89CC5" transform="translate(349,200)"/>
<path d="M0 0 C1.32 0 2.64 0 4 0 C4 0.66 4 1.32 4 2 C2.1875 3.6875 2.1875 3.6875 0 5 C-0.99 4.67 -1.98 4.34 -3 4 C-1.75 2 -1.75 2 0 0 Z " fill="#E7C6D5" transform="translate(289,261)"/>
<path d="M0 0 C0.66 0.33 1.32 0.66 2 1 C1.67 1.66 1.34 2.32 1 3 C0.34 3 -0.32 3 -1 3 C-1.33 3.99 -1.66 4.98 -2 6 C-2.99 5.67 -3.98 5.34 -5 5 C-5 4.01 -5 3.02 -5 2 C-2.625 0.9375 -2.625 0.9375 0 0 Z " fill="#E1CFDA" transform="translate(224,257)"/>
<path d="M0 0 C0.66 0.66 1.32 1.32 2 2 C1.01 3.485 1.01 3.485 0 5 C-1.32 4.67 -2.64 4.34 -4 4 C-3.67 3.01 -3.34 2.02 -3 1 C-2.01 0.67 -1.02 0.34 0 0 Z " fill="#F5DDE9" transform="translate(229,256)"/>
<path d="M0 0 C1 2 1 2 0.375 4.5625 C-1 7 -1 7 -3.625 7.8125 C-4.40875 7.874375 -5.1925 7.93625 -6 8 C-4.02 5.36 -2.04 2.72 0 0 Z " fill="#BAB0B4" transform="translate(268,247)"/>
<path d="M0 0 C0.99 0 1.98 0 3 0 C3 0.99 3 1.98 3 3 C0.5 4.6875 0.5 4.6875 -2 6 C-2.33 5.01 -2.66 4.02 -3 3 C-2.34 3 -1.68 3 -1 3 C-0.67 2.01 -0.34 1.02 0 0 Z " fill="#E5D5DE" transform="translate(224,234)"/>
<path d="M0 0 C0.66 0.33 1.32 0.66 2 1 C0.68 3.64 -0.64 6.28 -2 9 C-2.66 8.01 -3.32 7.02 -4 6 C-3.34 4.68 -2.68 3.36 -2 2 C-1.34 2 -0.68 2 0 2 C0 1.34 0 0.68 0 0 Z " fill="#E2B8CC" transform="translate(149,249)"/>
<path d="M0 0 C0.66 0.33 1.32 0.66 2 1 C1.67 2.32 1.34 3.64 1 5 C-0.32 5.33 -1.64 5.66 -3 6 C-2.67 4.68 -2.34 3.36 -2 2 C-1.34 2 -0.68 2 0 2 C0 1.34 0 0.68 0 0 Z " fill="#F7C3DF" transform="translate(159,250)"/>
<path d="M0 0 C1.65 0.33 3.3 0.66 5 1 C3.68 2.65 2.36 4.3 1 6 C0.34 5.01 -0.32 4.02 -1 3 C-0.67 2.01 -0.34 1.02 0 0 Z " fill="#D8B9C7" transform="translate(174,243)"/>
<path d="M0 0 C1.32 0.66 2.64 1.32 4 2 C1.03 4.475 1.03 4.475 -2 7 C-2 3.89448334 -1.4606285 2.64738916 0 0 Z " fill="#E3CBD7" transform="translate(185,234)"/>
</svg>
