<?xml version="1.0" encoding="UTF-8"?>
<!DOCTYPE svg PUBLIC "-//W3C//DTD SVG 1.1//EN" "http://www.w3.org/Graphics/SVG/1.1/DTD/svg11.dtd">
<svg xmlns="http://www.w3.org/2000/svg" version="1.1" width="500px" height="500px" style="shape-rendering:geometricPrecision; text-rendering:geometricPrecision; image-rendering:optimizeQuality; fill-rule:evenodd; clip-rule:evenodd" xmlns:xlink="http://www.w3.org/1999/xlink">
<g><path style="opacity:1" fill="#fefefe" d="M -0.5,-0.5 C 166.167,-0.5 332.833,-0.5 499.5,-0.5C 499.5,166.167 499.5,332.833 499.5,499.5C 332.833,499.5 166.167,499.5 -0.5,499.5C -0.5,332.833 -0.5,166.167 -0.5,-0.5 Z"/></g>
<g><path style="opacity:1" fill="#fdc7f6" d="M 172.5,140.5 C 172.185,142.226 172.019,143.893 172,145.5C 174.119,142.523 175.286,142.856 175.5,146.5C 175.122,148.135 174.456,149.635 173.5,151C 173.736,154.627 175.069,158.127 177.5,161.5C 178.5,162.833 179.5,162.833 180.5,161.5C 179.833,161.167 179.167,160.833 178.5,160.5C 180.297,159.305 181.297,157.638 181.5,155.5C 183.092,154.398 183.925,155.065 184,157.5C 184.216,155.616 184.883,153.949 186,152.5C 186.974,154.878 187.641,154.544 188,151.5C 190.026,152.019 192.026,152.353 194,152.5C 194.376,157.582 193.876,162.582 192.5,167.5C 188.957,179.438 187.124,191.771 187,204.5C 185.495,206.298 185.328,208.132 186.5,210C 185.151,210.772 184.318,211.939 184,213.5C 182.769,223.695 181.269,233.695 179.5,243.5C 179.631,242.624 179.298,241.957 178.5,241.5C 174.847,242.764 171.18,242.764 167.5,241.5C 169.305,236.751 171.305,232.085 173.5,227.5C 175.396,226.534 177.396,226.201 179.5,226.5C 179.421,225.07 179.754,223.736 180.5,222.5C 170.68,221.401 160.846,220.401 151,219.5C 147.331,219.481 143.831,220.148 140.5,221.5C 140.854,219.459 140.854,217.626 140.5,216C 141,215.5 141.5,215 142,214.5C 142.214,208.848 143.381,203.515 145.5,198.5C 145.938,198.565 146.272,198.399 146.5,198C 145.584,197.722 144.918,197.222 144.5,196.5C 146.238,184.964 148.072,173.297 150,161.5C 150.333,160.833 150.667,160.167 151,159.5C 151.249,160.624 151.749,161.624 152.5,162.5C 153.5,161.167 154.5,159.833 155.5,158.5C 160.447,161.902 163.28,160.568 164,154.5C 165.351,152.981 166.851,151.648 168.5,150.5C 167.952,148.459 167.785,146.126 168,143.5C 168.333,143.833 168.667,144.167 169,144.5C 169.66,142.676 170.827,141.343 172.5,140.5 Z"/></g>
<g><path style="opacity:1" fill="#cebade" d="M 277.5,154.5 C 277.672,156.492 277.005,158.158 275.5,159.5C 279.311,160.738 279.311,161.404 275.5,161.5C 275.52,163.143 274.853,164.476 273.5,165.5C 274.09,166.799 275.09,167.632 276.5,168C 275.283,169.648 274.45,171.481 274,173.5C 273.543,170.204 272.709,167.037 271.5,164C 272.258,162.636 271.758,161.469 270,160.5C 269.667,160.833 269.333,161.167 269,161.5C 267.956,160.377 267.29,159.044 267,157.5C 266.667,157.833 266.333,158.167 266,158.5C 265.83,156.285 265.163,154.285 264,152.5C 262.984,153.634 262.317,153.301 262,151.5C 261.283,152.044 260.783,152.711 260.5,153.5C 259.903,153.265 259.57,152.765 259.5,152C 260.078,150.189 260.578,148.355 261,146.5C 261.718,145.549 262.551,145.383 263.5,146C 262.446,147.388 262.28,148.888 263,150.5C 264.873,148.61 265.706,146.61 265.5,144.5C 266.314,146.766 266.814,149.1 267,151.5C 267.75,152.126 268.584,152.626 269.5,153C 268.978,153.561 268.645,154.228 268.5,155C 269.317,156.49 270.15,157.99 271,159.5C 273.074,158.33 275.241,156.663 277.5,154.5 Z"/></g>
<g><path style="opacity:1" fill="#b799ce" d="M 295.5,193.5 C 296.476,204.361 296.143,215.194 294.5,226C 294.899,227.728 295.566,229.228 296.5,230.5C 293.551,233.788 290.551,237.121 287.5,240.5C 283.498,240.695 280.165,242.195 277.5,245C 279.285,246.163 281.285,246.83 283.5,247C 279.287,252.591 274.954,258.091 270.5,263.5C 271.365,264.583 272.365,264.749 273.5,264C 278.195,258.773 282.528,253.273 286.5,247.5C 289.821,246.67 293.154,246.003 296.5,245.5C 296.78,267.844 297.447,290.177 298.5,312.5C 297.694,325.822 297.361,339.155 297.5,352.5C 294.728,352.78 292.228,352.113 290,350.5C 289.431,354.361 288.598,354.361 287.5,350.5C 286.575,351.641 285.741,351.641 285,350.5C 284.581,351.672 283.915,352.672 283,353.5C 281.868,351.661 281.035,349.661 280.5,347.5C 278.609,347.749 276.775,347.082 275,345.5C 273.11,345.785 271.777,346.785 271,348.5C 269.536,340.056 268.036,331.723 266.5,323.5C 266.666,316.825 266.5,310.158 266,303.5C 263.504,287.871 261.338,272.204 259.5,256.5C 261.963,256.219 264.13,255.219 266,253.5C 266.371,249.236 267.204,245.069 268.5,241C 268.713,238.544 267.713,237.544 265.5,238C 262.296,240.869 259.463,244.035 257,247.5C 256.947,244.798 257.447,242.131 258.5,239.5C 258.253,238.287 257.586,237.62 256.5,237.5C 256.085,233.17 255.085,229.003 253.5,225C 253.227,219.605 253.561,214.438 254.5,209.5C 251.52,197.62 249.187,185.62 247.5,173.5C 247.343,172.127 247.51,170.793 248,169.5C 248.308,170.308 248.808,170.975 249.5,171.5C 250.167,169.833 250.833,168.167 251.5,166.5C 252.527,167.791 253.527,167.791 254.5,166.5C 255.209,167.404 256.209,167.737 257.5,167.5C 258.099,164.832 259.766,162.998 262.5,162C 261.333,161.5 260.5,160.667 260,159.5C 259.444,161.595 258.944,161.762 258.5,160C 259.799,158.674 261.132,157.34 262.5,156C 261.552,155.517 260.552,155.351 259.5,155.5C 259.833,154.833 260.167,154.167 260.5,153.5C 260.783,152.711 261.283,152.044 262,151.5C 262.317,153.301 262.984,153.634 264,152.5C 265.163,154.285 265.83,156.285 266,158.5C 266.333,158.167 266.667,157.833 267,157.5C 267.29,159.044 267.956,160.377 269,161.5C 269.333,161.167 269.667,160.833 270,160.5C 271.758,161.469 272.258,162.636 271.5,164C 272.709,167.037 273.543,170.204 274,173.5C 274.45,171.481 275.283,169.648 276.5,168C 275.09,167.632 274.09,166.799 273.5,165.5C 274.853,164.476 275.52,163.143 275.5,161.5C 279.311,161.404 279.311,160.738 275.5,159.5C 277.005,158.158 277.672,156.492 277.5,154.5C 277.81,153.262 278.31,153.262 279,154.5C 279.483,153.552 279.649,152.552 279.5,151.5C 281.144,151.714 282.644,151.38 284,150.5C 285.299,151.09 286.132,152.09 286.5,153.5C 288.404,166.546 290.571,179.546 293,192.5C 293.333,192.167 293.667,191.833 294,191.5C 294.278,192.416 294.778,193.082 295.5,193.5 Z"/></g>
<g><path style="opacity:1" fill="#fbe68f" d="M 342.5,199.5 C 345.262,202.311 347.096,201.645 348,197.5C 348.399,197.728 348.565,198.062 348.5,198.5C 349.861,200.599 351.361,202.599 353,204.5C 354.449,215.117 355.282,225.784 355.5,236.5C 352.882,237.945 350.382,239.611 348,241.5C 348.667,245.5 349.333,249.5 350,253.5C 347.806,250.034 345.306,249.7 342.5,252.5C 342.33,253.822 342.663,254.989 343.5,256C 345.473,256.495 347.473,256.662 349.5,256.5C 349.942,266.325 348.108,275.658 344,284.5C 339.422,287.971 334.256,289.971 328.5,290.5C 323.434,290.34 318.434,290.84 313.5,292C 316.146,292.497 318.813,292.664 321.5,292.5C 328.585,292.295 335.252,293.795 341.5,297C 344.106,298.938 345.939,301.438 347,304.5C 348.165,312.135 349.165,319.802 350,327.5C 350.498,324.518 350.665,321.518 350.5,318.5C 351.837,319.315 352.837,320.482 353.5,322C 351.125,327.193 349.959,332.693 350,338.5C 349.667,338.167 349.333,337.833 349,337.5C 348.027,341.989 346.693,342.322 345,338.5C 342.974,342.026 340.141,344.693 336.5,346.5C 335.803,344.615 334.803,344.282 333.5,345.5C 332.828,350.139 332.662,354.806 333,359.5C 330.646,360.736 328.646,362.403 327,364.5C 324.269,362.467 321.269,360.801 318,359.5C 316.197,363.512 315.197,363.178 315,358.5C 313.108,359.13 311.441,360.13 310,361.5C 308.938,358.971 308.105,356.304 307.5,353.5C 306.808,354.025 306.308,354.692 306,355.5C 304.174,351.963 301.84,351.629 299,354.5C 298.283,353.956 297.783,353.289 297.5,352.5C 297.361,339.155 297.694,325.822 298.5,312.5C 297.447,290.177 296.78,267.844 296.5,245.5C 297.833,245.5 299.167,245.5 300.5,245.5C 300.523,247.927 301.023,250.26 302,252.5C 303.814,253.76 305.647,253.76 307.5,252.5C 306.735,250.705 306.068,248.872 305.5,247C 305.546,240.576 305.712,234.076 306,227.5C 306.422,225.645 306.922,223.811 307.5,222C 307.15,220.743 306.483,220.409 305.5,221C 302.296,224.036 299.296,227.203 296.5,230.5C 295.566,229.228 294.899,227.728 294.5,226C 296.143,215.194 296.476,204.361 295.5,193.5C 294.545,185.186 294.378,176.852 295,168.5C 295.308,169.308 295.808,169.975 296.5,170.5C 297.584,169.335 298.417,168.002 299,166.5C 300.145,167.684 301.312,167.684 302.5,166.5C 303.209,167.404 304.209,167.737 305.5,167.5C 305.491,165.692 305.991,164.025 307,162.5C 307.308,163.308 307.808,163.975 308.5,164.5C 309.298,162.922 309.798,161.256 310,159.5C 310.333,159.833 310.667,160.167 311,160.5C 311.49,159.207 311.657,157.873 311.5,156.5C 313.451,156.227 314.951,156.893 316,158.5C 316.333,158.167 316.667,157.833 317,157.5C 317.333,159.5 317.667,161.5 318,163.5C 318.654,162.304 319.154,162.304 319.5,163.5C 318.41,164.609 318.41,165.609 319.5,166.5C 320.192,165.975 320.692,165.308 321,164.5C 321.333,168.167 321.667,171.833 322,175.5C 322.146,170.456 322.979,165.79 324.5,161.5C 324.215,159.712 324.548,158.045 325.5,156.5C 326.72,155.289 327.887,155.289 329,156.5C 329.333,155.5 329.667,154.5 330,153.5C 332.235,154.239 334.235,154.239 336,153.5C 337.125,168.126 338.125,182.792 339,197.5C 339.333,197.167 339.667,196.833 340,196.5C 340.852,197.571 341.685,198.571 342.5,199.5 Z"/></g>
<g><path style="opacity:1" fill="#ffe4fb" d="M 172.5,140.5 C 173.688,141.684 174.855,141.684 176,140.5C 176.5,141.5 177,142.5 177.5,143.5C 177.112,145.359 177.112,147.359 177.5,149.5C 176.975,150.192 176.308,150.692 175.5,151C 176.249,152.734 176.749,154.567 177,156.5C 177.915,155.672 178.581,154.672 179,153.5C 179.417,154.756 180.25,155.423 181.5,155.5C 181.297,157.638 180.297,159.305 178.5,160.5C 179.167,160.833 179.833,161.167 180.5,161.5C 179.5,162.833 178.5,162.833 177.5,161.5C 175.069,158.127 173.736,154.627 173.5,151C 174.456,149.635 175.122,148.135 175.5,146.5C 175.286,142.856 174.119,142.523 172,145.5C 172.019,143.893 172.185,142.226 172.5,140.5 Z"/></g>
<g><path style="opacity:1" fill="#fef8dd" d="M 309.5,150.5 C 309.918,151.222 310.584,151.722 311.5,152C 310.833,152.333 310.167,152.667 309.5,153C 308.952,154.596 309.618,155.763 311.5,156.5C 311.657,157.873 311.49,159.207 311,160.5C 310.667,160.167 310.333,159.833 310,159.5C 309.798,161.256 309.298,162.922 308.5,164.5C 307.808,163.975 307.308,163.308 307,162.5C 305.991,164.025 305.491,165.692 305.5,167.5C 304.209,167.737 303.209,167.404 302.5,166.5C 302.768,163.881 302.435,161.381 301.5,159C 304.755,157.768 305.088,155.768 302.5,153C 302.833,152.833 303.167,152.667 303.5,152.5C 304.167,153.5 304.833,154.5 305.5,155.5C 306.887,153.79 308.221,152.123 309.5,150.5 Z"/></g>
<g><path style="opacity:1" fill="#ccf0e6" d="M 216.5,160.5 C 215.778,160.082 215.278,159.416 215,158.5C 214.667,159.5 214.333,160.5 214,161.5C 213.869,158.629 212.703,156.295 210.5,154.5C 209.713,155.242 209.047,156.075 208.5,157C 209.833,158.84 209.666,159.34 208,158.5C 207.16,161.464 206.16,161.797 205,159.5C 205.24,163.231 203.74,165.897 200.5,167.5C 199.817,167.137 199.15,166.804 198.5,166.5C 200.049,164.171 200.883,161.504 201,158.5C 201.333,158.833 201.667,159.167 202,159.5C 202.98,158.019 204.147,156.685 205.5,155.5C 204.572,154.232 204.405,152.899 205,151.5C 206.751,152.174 208.417,152.507 210,152.5C 210.415,150.709 211.415,149.376 213,148.5C 214.113,149.711 215.28,149.711 216.5,148.5C 216.833,149 217.167,149.5 217.5,150C 216.871,153.559 216.537,157.059 216.5,160.5 Z"/></g>
<g><path style="opacity:1" fill="#72d5bb" d="M 216.5,160.5 C 217.03,164.029 218.363,164.362 220.5,161.5C 221.192,162.025 221.692,162.692 222,163.5C 223.154,162.257 224.488,161.257 226,160.5C 226.974,162.878 227.641,162.544 228,159.5C 229.458,160.747 230.958,160.747 232.5,159.5C 234.283,161.023 234.949,163.023 234.5,165.5C 231.647,178.297 229.98,191.13 229.5,204C 231.081,204.707 232.581,205.54 234,206.5C 234.179,204.576 234.346,202.909 234.5,201.5C 236.003,202.59 236.336,203.757 235.5,205C 236.448,205.483 237.448,205.649 238.5,205.5C 239.781,207.669 240.781,210.003 241.5,212.5C 237.855,242.424 235.022,272.424 233,302.5C 231.221,307.163 228.054,308.83 223.5,307.5C 223.66,309.199 223.494,310.866 223,312.5C 222.054,314.788 220.887,316.955 219.5,319C 219.102,322.263 219.102,325.596 219.5,329C 216.037,331.195 214.704,334.361 215.5,338.5C 213.856,338.286 212.356,338.62 211,339.5C 210.751,338.376 210.251,337.376 209.5,336.5C 207.639,337.528 206.305,339.028 205.5,341C 203.579,341.36 201.912,342.194 200.5,343.5C 199.476,342.147 198.143,341.48 196.5,341.5C 195.965,345.819 195.465,350.152 195,354.5C 192.821,355.762 190.655,357.095 188.5,358.5C 186.024,355.866 183.19,353.866 180,352.5C 178.022,354.398 176.355,353.732 175,350.5C 174.311,351.357 173.478,352.023 172.5,352.5C 171.682,349.893 171.182,347.226 171,344.5C 170.586,344.957 170.086,345.291 169.5,345.5C 167.541,342.394 165.374,342.06 163,344.5C 162.506,342.866 162.34,341.199 162.5,339.5C 163.776,327.622 166.276,315.955 170,304.5C 173.168,284.825 176.335,265.158 179.5,245.5C 179.5,244.833 179.5,244.167 179.5,243.5C 181.269,233.695 182.769,223.695 184,213.5C 184.318,211.939 185.151,210.772 186.5,210C 185.328,208.132 185.495,206.298 187,204.5C 187.124,191.771 188.957,179.438 192.5,167.5C 192.369,168.376 192.702,169.043 193.5,169.5C 194.852,168.482 195.852,167.149 196.5,165.5C 197.192,166.025 197.692,166.692 198,167.5C 198.399,167.272 198.565,166.938 198.5,166.5C 199.15,166.804 199.817,167.137 200.5,167.5C 203.74,165.897 205.24,163.231 205,159.5C 206.16,161.797 207.16,161.464 208,158.5C 209.666,159.34 209.833,158.84 208.5,157C 209.047,156.075 209.713,155.242 210.5,154.5C 212.703,156.295 213.869,158.629 214,161.5C 214.333,160.5 214.667,159.5 215,158.5C 215.278,159.416 215.778,160.082 216.5,160.5 Z"/></g>
<g><path style="opacity:1" fill="#e0d4ea" d="M 259.5,155.5 C 260.552,155.351 261.552,155.517 262.5,156C 261.132,157.34 259.799,158.674 258.5,160C 258.944,161.762 259.444,161.595 260,159.5C 260.5,160.667 261.333,161.5 262.5,162C 259.766,162.998 258.099,164.832 257.5,167.5C 256.209,167.737 255.209,167.404 254.5,166.5C 254.703,164.61 254.037,163.11 252.5,162C 253.749,160.176 254.915,160.343 256,162.5C 257.617,161.464 257.784,160.297 256.5,159C 257.365,157.641 258.365,156.474 259.5,155.5 Z"/></g>
<g><path style="opacity:1" fill="#fdeeb0" d="M 324.5,161.5 C 322.979,165.79 322.146,170.456 322,175.5C 321.667,171.833 321.333,168.167 321,164.5C 320.692,165.308 320.192,165.975 319.5,166.5C 318.41,165.609 318.41,164.609 319.5,163.5C 319.154,162.304 318.654,162.304 318,163.5C 317.667,161.5 317.333,159.5 317,157.5C 316.667,157.833 316.333,158.167 316,158.5C 314.951,156.893 313.451,156.227 311.5,156.5C 309.618,155.763 308.952,154.596 309.5,153C 310.167,152.667 310.833,152.333 311.5,152C 310.584,151.722 309.918,151.222 309.5,150.5C 310.835,145.465 312.001,145.465 313,150.5C 314.617,149.464 314.784,148.297 313.5,147C 314.667,146.5 315.5,145.667 316,144.5C 315.345,148.192 316.512,151.359 319.5,154C 318.833,154.667 318.167,155.333 317.5,156C 319.004,157.491 319.837,159.324 320,161.5C 321.801,156.183 323.301,156.183 324.5,161.5 Z"/></g>
<g><path style="opacity:1" fill="#8555a5" d="M 154.5,178.5 C 156.164,179.949 156.998,181.949 157,184.5C 163,185.833 163,187.167 157,188.5C 155.56,194.961 154.56,194.961 154,188.5C 150.667,187.167 150.667,185.833 154,184.5C 154.495,182.527 154.662,180.527 154.5,178.5 Z"/></g>
<g><path style="opacity:1" fill="#7e53a1" d="M 144.5,196.5 C 144.918,197.222 145.584,197.722 146.5,198C 146.272,198.399 145.938,198.565 145.5,198.5C 143.91,198.628 142.577,199.295 141.5,200.5C 139.938,203.974 139.105,207.64 139,211.5C 138.118,208.211 137.452,204.877 137,201.5C 135.333,199.372 133.166,198.039 130.5,197.5C 132.917,196.928 135.084,195.928 137,194.5C 137.774,190.853 138.441,187.186 139,183.5C 139.559,187.186 140.226,190.853 141,194.5C 141.816,195.823 142.983,196.489 144.5,196.5 Z"/></g>
<g><path style="opacity:1" fill="#fef8de" d="M 348.5,198.5 C 348.565,198.062 348.399,197.728 348,197.5C 347.096,201.645 345.262,202.311 342.5,199.5C 342.369,198.761 342.536,198.094 343,197.5C 344.666,198.34 344.833,197.84 343.5,196C 344.167,195.667 344.833,195.333 345.5,195C 344.739,190.642 343.572,190.475 342,194.5C 340.781,190.501 341.781,186.835 345,183.5C 345.333,185.167 345.667,186.833 346,188.5C 347.646,186.945 347.979,185.279 347,183.5C 347.925,184.047 348.758,184.713 349.5,185.5C 349.324,187.672 349.157,190.005 349,192.5C 348.151,190.494 346.985,189.828 345.5,190.5C 348.748,192.621 349.748,195.288 348.5,198.5 Z"/></g>
<g><path style="opacity:1" fill="#8962a9" d="M 122.5,201.5 C 124.164,202.949 124.998,204.949 125,207.5C 126.067,208.191 127.234,208.691 128.5,209C 126.139,209.197 124.472,210.364 123.5,212.5C 122.183,210.841 120.517,209.674 118.5,209C 119.766,208.691 120.933,208.191 122,207.5C 122.495,205.527 122.662,203.527 122.5,201.5 Z"/></g>
<g><path style="opacity:1" fill="#8f5eab" d="M 173.5,203.5 C 174.931,204.78 175.598,206.447 175.5,208.5C 180.833,208.833 180.833,209.167 175.5,209.5C 174.585,217.761 173.752,218.094 173,210.5C 171.933,209.809 170.766,209.309 169.5,209C 172.876,208.693 174.21,206.86 173.5,203.5 Z"/></g>
<g><path style="opacity:1" fill="#794a9d" d="M 179.5,243.5 C 179.5,244.167 179.5,244.833 179.5,245.5C 174.916,246.277 170.25,246.777 165.5,247C 162.227,255.273 156.56,261.273 148.5,265C 145.5,265.667 142.5,265.667 139.5,265C 138.251,262.79 138.418,260.624 140,258.5C 141.973,257.36 143.807,256.027 145.5,254.5C 146.5,254.833 147.167,255.5 147.5,256.5C 144.411,261.912 145.745,263.412 151.5,261C 155.314,257.21 157.98,252.71 159.5,247.5C 155.149,246.225 150.815,246.225 146.5,247.5C 146.183,244.913 147.517,243.08 150.5,242C 154.486,241.501 158.486,241.334 162.5,241.5C 163.762,236.717 165.428,232.05 167.5,227.5C 157.737,225.459 148.07,225.126 138.5,226.5C 134.188,227.452 132.855,229.952 134.5,234C 135.745,234.791 137.078,235.291 138.5,235.5C 139.301,237.042 139.634,238.708 139.5,240.5C 138.5,240.5 137.5,240.5 136.5,240.5C 127.696,235.617 127.363,230.117 135.5,224C 137.193,223.153 138.86,222.32 140.5,221.5C 143.831,220.148 147.331,219.481 151,219.5C 160.846,220.401 170.68,221.401 180.5,222.5C 179.754,223.736 179.421,225.07 179.5,226.5C 177.396,226.201 175.396,226.534 173.5,227.5C 171.305,232.085 169.305,236.751 167.5,241.5C 171.18,242.764 174.847,242.764 178.5,241.5C 179.298,241.957 179.631,242.624 179.5,243.5 Z"/></g>
<g><path style="opacity:1" fill="#774999" d="M 296.5,245.5 C 293.154,246.003 289.821,246.67 286.5,247.5C 282.528,253.273 278.195,258.773 273.5,264C 272.365,264.749 271.365,264.583 270.5,263.5C 274.954,258.091 279.287,252.591 283.5,247C 281.285,246.83 279.285,246.163 277.5,245C 280.165,242.195 283.498,240.695 287.5,240.5C 290.551,237.121 293.551,233.788 296.5,230.5C 299.296,227.203 302.296,224.036 305.5,221C 306.483,220.409 307.15,220.743 307.5,222C 306.922,223.811 306.422,225.645 306,227.5C 305.712,234.076 305.546,240.576 305.5,247C 306.068,248.872 306.735,250.705 307.5,252.5C 305.647,253.76 303.814,253.76 302,252.5C 301.023,250.26 300.523,247.927 300.5,245.5C 299.167,245.5 297.833,245.5 296.5,245.5 Z"/></g>
<g><path style="opacity:1" fill="#fec7f7" d="M 138.5,226.5 C 148.07,225.126 157.737,225.459 167.5,227.5C 165.428,232.05 163.762,236.717 162.5,241.5C 158.486,241.334 154.486,241.501 150.5,242C 147.517,243.08 146.183,244.913 146.5,247.5C 150.815,246.225 155.149,246.225 159.5,247.5C 157.98,252.71 155.314,257.21 151.5,261C 145.745,263.412 144.411,261.912 147.5,256.5C 147.167,255.5 146.5,254.833 145.5,254.5C 143.807,256.027 141.973,257.36 140,258.5C 138.418,260.624 138.251,262.79 139.5,265C 142.5,265.667 145.5,265.667 148.5,265C 156.56,261.273 162.227,255.273 165.5,247C 170.25,246.777 174.916,246.277 179.5,245.5C 176.335,265.158 173.168,284.825 170,304.5C 166.276,315.955 163.776,327.622 162.5,339.5C 161.85,339.804 161.183,340.137 160.5,340.5C 159.158,338.995 157.492,338.328 155.5,338.5C 155.329,343.196 154.829,347.863 154,352.5C 152.316,354.066 150.316,355.066 148,355.5C 144.658,353.997 141.658,351.997 139,349.5C 137.197,353.512 136.197,353.178 136,348.5C 134.601,348.501 133.101,348.835 131.5,349.5C 130.682,346.893 130.182,344.226 130,341.5C 129.333,342.167 128.667,342.833 128,343.5C 126.62,339.305 124.287,338.638 121,341.5C 121.049,329.49 123.049,317.823 127,306.5C 130.868,284.588 134.035,262.588 136.5,240.5C 137.5,240.5 138.5,240.5 139.5,240.5C 139.634,238.708 139.301,237.042 138.5,235.5C 139.551,232.344 139.551,229.344 138.5,226.5 Z"/></g>
<g><path style="opacity:1" fill="#faf6fb" d="M 138.5,226.5 C 139.551,229.344 139.551,232.344 138.5,235.5C 137.078,235.291 135.745,234.791 134.5,234C 132.855,229.952 134.188,227.452 138.5,226.5 Z"/></g>
<g><path style="opacity:1" fill="#784a97" d="M 342.5,252.5 C 339.322,255.22 335.655,256.054 331.5,255C 328.923,251.738 328.923,248.405 331.5,245C 330.692,244.692 330.025,244.192 329.5,243.5C 332.851,239.978 335.851,236.144 338.5,232C 339.793,231.51 341.127,231.343 342.5,231.5C 342.076,234.354 341.076,237.021 339.5,239.5C 340.5,240.167 341.5,240.833 342.5,241.5C 341.119,243.691 339.119,245.024 336.5,245.5C 335.652,247.409 335.318,249.409 335.5,251.5C 337.401,251.567 339.234,251.233 341,250.5C 342.03,250.836 342.53,251.503 342.5,252.5 Z"/></g>
<g><path style="opacity:1" fill="#f3de8f" d="M 296.5,242.5 C 296.5,239.833 296.5,237.167 296.5,234.5C 298.168,232.66 299.668,230.66 301,228.5C 300.017,233.038 299.517,237.705 299.5,242.5C 298.5,242.5 297.5,242.5 296.5,242.5 Z"/></g>
<g><path style="opacity:1" fill="#724c9a" d="M 192.5,235.5 C 194.752,235.916 196.252,237.249 197,239.5C 197.793,250.036 192.96,255.536 182.5,256C 179.698,251.254 180.198,246.754 184,242.5C 187.023,240.302 189.856,237.969 192.5,235.5 Z"/></g>
<g><path style="opacity:1" fill="#724b9a" d="M 223.5,236.5 C 225.665,236.116 227.332,236.783 228.5,238.5C 226.271,242.212 224.937,245.879 224.5,249.5C 227.851,245.978 230.851,242.144 233.5,238C 234.449,237.383 235.282,237.549 236,238.5C 236.112,243.5 235.779,248.5 235,253.5C 233.556,255.155 231.722,255.822 229.5,255.5C 230.418,247.898 229.084,247.065 225.5,253C 219.245,257.372 216.745,255.872 218,248.5C 219.043,244.085 220.876,240.085 223.5,236.5 Z"/></g>
<g><path style="opacity:1" fill="#ba9bc7" d="M 296.5,234.5 C 296.5,237.167 296.5,239.833 296.5,242.5C 294.396,242.799 292.396,242.466 290.5,241.5C 292.552,239.122 294.552,236.789 296.5,234.5 Z"/></g>
<g><path style="opacity:1" fill="#75499b" d="M 256.5,237.5 C 257.586,237.62 258.253,238.287 258.5,239.5C 257.447,242.131 256.947,244.798 257,247.5C 259.463,244.035 262.296,240.869 265.5,238C 267.713,237.544 268.713,238.544 268.5,241C 267.204,245.069 266.371,249.236 266,253.5C 264.13,255.219 261.963,256.219 259.5,256.5C 259.5,256.167 259.5,255.833 259.5,255.5C 260.027,252.091 260.527,248.758 261,245.5C 259.824,247.196 258.657,248.862 257.5,250.5C 256.038,251.458 254.705,252.624 253.5,254C 252.207,254.49 250.873,254.657 249.5,254.5C 250.1,251.012 250.933,247.679 252,244.5C 249.688,247.646 247.188,250.646 244.5,253.5C 242.677,254.747 240.677,255.414 238.5,255.5C 239.758,249.229 241.925,243.229 245,237.5C 246.011,236.663 247.178,236.33 248.5,236.5C 248.273,239.965 247.773,243.299 247,246.5C 250.036,243.296 253.203,240.296 256.5,237.5 Z"/></g>
<g><path style="opacity:1" fill="#724e9a" d="M 212.5,235.5 C 213.5,235.5 214.5,235.5 215.5,235.5C 214.461,239.206 214.461,242.873 215.5,246.5C 213.801,246.34 212.134,246.506 210.5,247C 208.732,249.884 206.732,252.551 204.5,255C 202.359,255.884 200.693,255.384 199.5,253.5C 202.853,249.896 203.186,246.063 200.5,242C 202.067,240.19 204.067,239.023 206.5,238.5C 207.49,247.682 208.657,247.682 210,238.5C 210.698,237.309 211.531,236.309 212.5,235.5 Z"/></g>
<g><path style="opacity:1" fill="#7c4e97" d="M 324.5,235.5 C 325.5,235.5 326.5,235.5 327.5,235.5C 326.461,239.206 326.461,242.873 327.5,246.5C 325.856,246.714 324.356,246.38 323,245.5C 321.191,248.964 319.024,252.131 316.5,255C 314.359,255.884 312.693,255.384 311.5,253.5C 314.753,249.685 315.253,245.685 313,241.5C 318.248,236.72 320.581,238.053 320,245.5C 321.194,243.377 321.86,241.043 322,238.5C 322.698,237.309 323.531,236.309 324.5,235.5 Z"/></g>
<g><path style="opacity:1" fill="#72c9b8" d="M 189.5,242.5 C 194.528,245.399 194.528,248.565 189.5,252C 188.552,252.483 187.552,252.649 186.5,252.5C 186.35,248.805 187.35,245.472 189.5,242.5 Z"/></g>
<g><path style="opacity:1" fill="#efd991" d="M 355.5,241.5 C 356.72,243.284 356.72,244.95 355.5,246.5C 354.847,245.193 354.18,243.86 353.5,242.5C 353.957,241.702 354.624,241.369 355.5,241.5 Z"/></g>
<g><path style="opacity:1" fill="#8be9fd" d="M 247.5,173.5 C 249.187,185.62 251.52,197.62 254.5,209.5C 253.561,214.438 253.227,219.605 253.5,225C 255.085,229.003 256.085,233.17 256.5,237.5C 253.203,240.296 250.036,243.296 247,246.5C 247.773,243.299 248.273,239.965 248.5,236.5C 247.178,236.33 246.011,236.663 245,237.5C 241.925,243.229 239.758,249.229 238.5,255.5C 240.677,255.414 242.677,254.747 244.5,253.5C 247.188,250.646 249.688,247.646 252,244.5C 250.933,247.679 250.1,251.012 249.5,254.5C 250.873,254.657 252.207,254.49 253.5,254C 254.705,252.624 256.038,251.458 257.5,250.5C 258.024,252.306 258.691,253.972 259.5,255.5C 259.5,255.833 259.5,256.167 259.5,256.5C 261.338,272.204 263.504,287.871 266,303.5C 266.5,310.158 266.666,316.825 266.5,323.5C 264.732,327.3 263.399,331.3 262.5,335.5C 261.522,335.977 260.689,336.643 260,337.5C 259.311,336.643 258.478,335.977 257.5,335.5C 255.841,337.99 253.675,339.99 251,341.5C 249.287,340.047 247.787,340.214 246.5,342C 247.622,345.409 247.789,348.909 247,352.5C 245.293,353.944 243.46,355.277 241.5,356.5C 240.808,355.975 240.308,355.308 240,354.5C 237.602,354.935 235.269,354.269 233,352.5C 231.914,354.847 230.581,354.847 229,352.5C 228.127,352.735 227.293,353.069 226.5,353.5C 225.833,351.167 225.167,348.833 224.5,346.5C 222.088,345.622 219.421,345.622 216.5,346.5C 215.52,343.914 215.187,341.247 215.5,338.5C 214.704,334.361 216.037,331.195 219.5,329C 219.102,325.596 219.102,322.263 219.5,319C 220.887,316.955 222.054,314.788 223,312.5C 223.494,310.866 223.66,309.199 223.5,307.5C 228.054,308.83 231.221,307.163 233,302.5C 235.022,272.424 237.855,242.424 241.5,212.5C 240.781,210.003 239.781,207.669 238.5,205.5C 237.448,205.649 236.448,205.483 235.5,205C 236.336,203.757 236.003,202.59 234.5,201.5C 234.346,202.909 234.179,204.576 234,206.5C 232.581,205.54 231.081,204.707 229.5,204C 229.98,191.13 231.647,178.297 234.5,165.5C 235.202,162.476 237.202,160.81 240.5,160.5C 241.751,165.503 242.917,170.169 244,174.5C 244.704,172.273 245.871,171.94 247.5,173.5 Z"/></g>
<g><path style="opacity:1" fill="#a791c9" d="M 259.5,255.5 C 258.691,253.972 258.024,252.306 257.5,250.5C 258.657,248.862 259.824,247.196 261,245.5C 260.527,248.758 260.027,252.091 259.5,255.5 Z"/></g>
<g><path style="opacity:1" fill="#fae692" d="M 356.5,250.5 C 357.99,262.677 359.324,275.011 360.5,287.5C 358.284,286.797 356.451,285.464 355,283.5C 351.153,274.904 349.819,265.904 351,256.5C 353.744,255.26 355.577,253.26 356.5,250.5 Z"/></g>
<g><path style="opacity:1" fill="#784a98" d="M 355.5,236.5 C 356.649,236.791 357.316,237.624 357.5,239C 357.316,240.376 356.649,241.209 355.5,241.5C 354.624,241.369 353.957,241.702 353.5,242.5C 354.18,243.86 354.847,245.193 355.5,246.5C 356.234,247.708 356.567,249.041 356.5,250.5C 355.577,253.26 353.744,255.26 351,256.5C 349.819,265.904 351.153,274.904 355,283.5C 356.451,285.464 358.284,286.797 360.5,287.5C 366.272,289.685 372.272,291.185 378.5,292C 372.538,292.358 366.871,293.525 361.5,295.5C 356.073,297.101 352.907,300.767 352,306.5C 350.892,310.086 350.392,313.753 350.5,317.5C 350.5,317.833 350.5,318.167 350.5,318.5C 350.665,321.518 350.498,324.518 350,327.5C 349.165,319.802 348.165,312.135 347,304.5C 345.939,301.438 344.106,298.938 341.5,297C 335.252,293.795 328.585,292.295 321.5,292.5C 323.833,291.833 326.167,291.167 328.5,290.5C 334.256,289.971 339.422,287.971 344,284.5C 348.108,275.658 349.942,266.325 349.5,256.5C 347.473,256.662 345.473,256.495 343.5,256C 342.663,254.989 342.33,253.822 342.5,252.5C 345.306,249.7 347.806,250.034 350,253.5C 349.333,249.5 348.667,245.5 348,241.5C 350.382,239.611 352.882,237.945 355.5,236.5 Z"/></g>
<g><path style="opacity:1" fill="#7e53a1" d="M 371.5,261.5 C 371.624,265.559 373.624,268.393 377.5,270C 374.117,271.38 372.284,273.88 372,277.5C 371.031,272.373 367.864,269.873 362.5,270C 368.591,270.408 371.591,267.575 371.5,261.5 Z"/></g>
<g><path style="opacity:1" fill="#7d5097" d="M 331.5,265.5 C 332.321,268.484 334.321,270.317 337.5,271C 335.152,271.346 333.319,272.513 332,274.5C 331.024,272.113 329.191,270.946 326.5,271C 330.459,271.209 332.126,269.375 331.5,265.5 Z"/></g>
<g><path style="opacity:1" fill="#a78194" d="M 328.5,290.5 C 326.167,291.167 323.833,291.833 321.5,292.5C 318.813,292.664 316.146,292.497 313.5,292C 318.434,290.84 323.434,290.34 328.5,290.5 Z"/></g>
<g><path style="opacity:1" fill="#f5e094" d="M 361.5,295.5 C 362.356,299.832 360.856,303.499 357,306.5C 355.989,305.663 354.822,305.33 353.5,305.5C 353.495,308.532 353.162,311.532 352.5,314.5C 352.36,316.03 351.693,317.03 350.5,317.5C 350.392,313.753 350.892,310.086 352,306.5C 352.907,300.767 356.073,297.101 361.5,295.5 Z"/></g>
<g><path style="opacity:1" fill="#7c4e97" d="M 333.5,303.5 C 334.686,306.34 336.686,308.506 339.5,310C 336.667,310.833 334.833,312.667 334,315.5C 333.06,312.227 330.893,310.394 327.5,310C 331.128,309.21 333.128,307.043 333.5,303.5 Z"/></g>
</svg>
